<?xml version="1.0" encoding="utf-8"?>
<!-- Generator: Adobe Illustrator 24.0.0, SVG Export Plug-In . SVG Version: 6.00 Build 0)  -->
<svg version="1.1" id="Capa_1" xmlns="http://www.w3.org/2000/svg" xmlns:xlink="http://www.w3.org/1999/xlink" x="0px" y="0px"
	 viewBox="0 0 542.3 190.72" style="enable-background:new 0 0 542.3 190.72;" xml:space="preserve">
<style type="text/css">
	.st0{display:none;fill:#BF0908;stroke:#E20613;stroke-miterlimit:10;}
	.st1{fill:#FFFFFF;}
	.st2{fill:#FFFFFF;stroke:#FFFFFF;stroke-miterlimit:10;}
	.st3{fill:#FFFFFF;stroke:#FFFFFF;stroke-width:1.0643;stroke-miterlimit:10;}
	.st4{fill:#FFFFFF;stroke:#FFFFFF;stroke-width:1.4422;stroke-miterlimit:10;}
	.st5{fill:#BF0908;}
</style>
<rect x="-52.12" y="-41.7" class="st0" width="671.76" height="270"/>
<g>
	<g>
		<g>
			<path class="st1" d="M46.42,12.99v166.74h43.53V12.99H46.42z"/>
		</g>
	</g>
	<g>
		<g>
			<path class="st1" d="M453.45,12.99h-129.3c-22.25,0-40.28,18.04-40.28,40.28v0c0,22.25,18.04,40.28,40.28,40.28h129.3
				c22.25,0,40.28-18.04,40.28-40.28v0C493.74,31.03,475.7,12.99,453.45,12.99z M319.92,62.93c1.5,2.74,3.58,4.89,6.23,6.45
				c2.65,1.56,5.6,2.34,8.83,2.34c3.06,0,6.55-0.98,10.47-2.94V53.11h13.67v24.15c-3.23,2.37-7.2,4.28-11.9,5.75
				c-4.7,1.47-9.16,2.21-13.37,2.21c-6.12,0-11.64-1.37-16.57-4.11c-4.93-2.74-8.81-6.5-11.64-11.29
				c-2.83-4.79-4.24-10.15-4.24-16.1c0-5.88,1.46-11.21,4.37-15.97c2.91-4.76,6.92-8.49,12.03-11.21c5.11-2.71,10.8-4.07,17.09-4.07
				c4.5,0,9,0.82,13.5,2.47c4.5,1.64,8.31,3.85,11.42,6.62l-9,11.08c-2.19-2.08-4.72-3.72-7.57-4.93c-2.86-1.21-5.67-1.82-8.44-1.82
				c-3.23,0-6.14,0.78-8.74,2.34c-2.6,1.56-4.65,3.69-6.14,6.4c-1.5,2.71-2.25,5.74-2.25,9.09
				C317.67,57.12,318.41,60.19,319.92,62.93z M413.72,73.23c-2.14,3.61-5.14,6.4-9,8.39c-3.87,1.99-8.34,2.99-13.41,2.99
				c-5.08,0-9.55-1-13.41-2.99c-3.87-1.99-6.85-4.79-8.96-8.39c-2.11-3.6-3.16-7.8-3.16-12.59c0-4.73,1.05-8.9,3.16-12.51
				c2.11-3.6,5.09-6.4,8.96-8.39c3.86-1.99,8.34-2.99,13.41-2.99c5.08,0,9.55,1,13.41,2.99c3.86,1.99,6.86,4.79,9,8.39
				c2.13,3.61,3.2,7.78,3.2,12.51C416.93,65.43,415.86,69.63,413.72,73.23z M473.57,73.36c-1.76,3.58-4.27,6.35-7.53,8.31
				c-3.26,1.96-7.02,2.94-11.29,2.94c-2.94,0-5.61-0.56-8.01-1.69c-2.39-1.13-4.43-2.75-6.1-4.89v6.06h-15.4V19.88h15.4v23.45
				c3.4-4.38,7.99-6.58,13.76-6.58c4.33,0,8.14,1,11.42,2.99c3.29,1.99,5.84,4.82,7.66,8.48c1.82,3.66,2.73,7.89,2.73,12.68
				C476.21,65.63,475.33,69.78,473.57,73.36z"/>
			<path class="st1" d="M391.31,49.22c-3,0-5.42,1.07-7.27,3.2c-1.85,2.14-2.77,4.93-2.77,8.39c0,3.52,0.92,6.35,2.77,8.48
				c1.85,2.13,4.27,3.2,7.27,3.2c3.06,0,5.51-1.07,7.36-3.2c1.85-2.13,2.77-4.96,2.77-8.48c0-3.46-0.94-6.26-2.81-8.39
				C396.75,50.28,394.31,49.22,391.31,49.22z"/>
			<path class="st1" d="M450.59,48.87c-2.94,0-5.34,1.08-7.18,3.25c-1.85,2.16-2.77,4.98-2.77,8.44c0,3.46,0.92,6.26,2.77,8.39
				c1.85,2.14,4.24,3.2,7.18,3.2c3,0,5.44-1.07,7.31-3.2c1.87-2.13,2.81-4.93,2.81-8.39c0-3.46-0.94-6.27-2.81-8.44
				C456.03,49.95,453.59,48.87,450.59,48.87z"/>
		</g>
		<path class="st1" d="M314.9,145.21c1.5,1.49,2.24,3.43,2.24,5.79c0,2.37-0.75,4.31-2.24,5.84c-1.49,1.53-3.43,2.29-5.79,2.29
			c-2.31,0-4.2-0.76-5.7-2.29c-1.5-1.53-2.24-3.47-2.24-5.84c0-2.37,0.73-4.3,2.2-5.79c1.46-1.5,3.38-2.24,5.75-2.24
			C311.47,142.96,313.4,143.71,314.9,145.21z"/>
		<path class="st1" d="M371.24,110.49c3.55,2.15,6.31,5.2,8.27,9.16c1.96,3.96,2.94,8.52,2.94,13.69c0,5.11-0.95,9.59-2.85,13.46
			c-1.9,3.86-4.61,6.85-8.13,8.97c-3.52,2.12-7.58,3.18-12.19,3.18c-3.18,0-6.06-0.61-8.64-1.82c-2.59-1.21-4.78-2.97-6.59-5.28
			v24.67h-16.63v-68.68h16.63v6.54c3.68-4.73,8.63-7.1,14.86-7.1C363.58,107.27,367.69,108.34,371.24,110.49z M362.69,142.03
			c2.02-2.3,3.04-5.33,3.04-9.06c0-3.74-1.01-6.77-3.04-9.11c-2.02-2.34-4.66-3.5-7.9-3.5c-3.18,0-5.76,1.17-7.76,3.5
			c-1.99,2.34-2.99,5.37-2.99,9.11c0,3.74,1,6.76,2.99,9.06c1.99,2.31,4.58,3.46,7.76,3.46
			C358.04,145.49,360.67,144.33,362.69,142.03z"/>
		<path class="st1" d="M432.26,114.56c4.42,4.86,6.63,11.53,6.63,20c0,1.31-0.03,2.31-0.09,2.99h-35.13
			c0.81,2.87,2.21,5.06,4.2,6.59c1.99,1.53,4.42,2.29,7.29,2.29c2.18,0,4.28-0.44,6.31-1.31c2.02-0.87,3.88-2.15,5.56-3.83
			l8.69,8.69c-2.62,2.93-5.78,5.16-9.48,6.68c-3.71,1.53-7.9,2.29-12.57,2.29c-5.42,0-10.15-1.06-14.2-3.18
			c-4.05-2.12-7.15-5.11-9.3-8.97c-2.15-3.86-3.22-8.35-3.22-13.46c0-5.17,1.09-9.73,3.27-13.69c2.18-3.96,5.26-7.01,9.25-9.16
			c3.99-2.15,8.6-3.22,13.83-3.22C421.51,107.27,427.84,109.7,432.26,114.56z M422.73,128.67c0-2.93-0.86-5.28-2.57-7.06
			c-1.71-1.78-3.97-2.66-6.77-2.66c-2.62,0-4.81,0.87-6.59,2.62c-1.78,1.74-2.94,4.11-3.5,7.1H422.73z"/>
	</g>
</g>
<g>
	<g>
		<polygon class="st2" points="157.1,130.46 157.1,120.09 157.1,73.03 157.1,62.66 167.48,62.66 176.56,62.66 176.56,13.59 
			110.48,13.59 110.48,179.53 176.56,179.53 176.56,130.46 167.48,130.46 		"/>
		<path class="st3" d="M176.56,13.59V62.8c14.32,0.69,23.45,5.73,28.63,10.05c7.48,6.25,11.61,14.67,11.61,23.71
			c0,16.19-13.83,32.53-40.24,33.78v49.2c51.91,0,93.99-37.15,93.99-82.97C270.55,50.73,228.47,13.59,176.56,13.59z"/>
		<path class="st4" d="M186.58,62.82c-1.35-0.09-2.72-0.16-4.14-0.16c-1.54,0-3.08,0-4.61,0h-7.26h-13.19v67.36h13.19h7.26
			c1.54,0,3.07,0,4.61,0c1.42,0,2.79-0.07,4.14-0.16C235.27,126.59,235.27,66.09,186.58,62.82z"/>
	</g>
</g>
<g>
	<g>
		<g>
			<path class="st5" d="M179.37,57.3c-11.12,0-20.21,9.09-20.21,20.21s9.09,20.21,20.21,20.21s20.21-9.09,20.21-20.21
				S190.49,57.3,179.37,57.3z"/>
		</g>
	</g>
	<g>
		<g>
			<path class="st5" d="M214.05,113.86c-0.53-1.32-1.24-2.56-2.03-3.71c-4.06-6-10.32-9.97-17.38-10.94
				c-0.88-0.09-1.85,0.09-2.56,0.62c-3.71,2.74-8.12,4.15-12.71,4.15s-9-1.41-12.71-4.15c-0.71-0.53-1.68-0.79-2.56-0.62
				c-7.06,0.97-13.41,4.94-17.38,10.94c-0.79,1.15-1.5,2.47-2.03,3.71c-0.26,0.53-0.18,1.15,0.09,1.68
				c0.71,1.24,1.59,2.47,2.38,3.53c1.24,1.68,2.56,3.18,4.06,4.59c1.24,1.24,2.65,2.38,4.06,3.53c6.97,5.21,15.35,7.94,24,7.94
				c8.65,0,17.03-2.74,24-7.94c1.41-1.06,2.82-2.29,4.06-3.53c1.41-1.41,2.82-2.91,4.06-4.59c0.88-1.15,1.68-2.29,2.38-3.53
				C214.23,115.01,214.32,114.39,214.05,113.86z"/>
		</g>
	</g>
</g>
</svg>
