<?xml version="1.0" encoding="utf-8"?>
<!-- Generator: Adobe Illustrator 22.0.0, SVG Export Plug-In . SVG Version: 6.00 Build 0)  -->
<svg version="1.1" id="Capa_1" xmlns="http://www.w3.org/2000/svg" xmlns:xlink="http://www.w3.org/1999/xlink" x="0px" y="0px"
	 viewBox="0 0 333.1 90.9" style="enable-background:new 0 0 333.1 90.9;" xml:space="preserve">
<style type="text/css">
	.st0{fill:#FFFFFF;}
	.st1{enable-background:new    ;}
</style>
<title>logo_IDperu</title>
<g id="_Grupo_">
	<g id="_Grupo_2">
		<g id="_Grupo_3">
			<g id="_Grupo_4">
				<path id="_Trazado_" class="st0" d="M69,43.7h-1.3c-14.3-0.5-22.1-8.6-22.5-9c-0.3-0.4-0.3-0.9,0-1.3c0.4-0.3,0.9-0.3,1.3,0
					c0.2,0.2,7.7,8,21.2,8.3c8.1,0.3,16-2,22.6-6.7c0.4-0.3,1-0.2,1.3,0.2s0.2,1-0.2,1.3C91,37,82.6,43.7,69,43.7z"/>
			</g>
			<g id="_Grupo_5">
				<path id="_Trazado_2" class="st0" d="M44.5,82.3c-0.5,0-1-0.4-1-0.9v-0.1c-0.1-0.5,0.2-0.9,0.7-1c0.1,0,0.2,0,0.3,0
					c25.4,0,39.2-16.1,43.8-31.3c4.9-16.5,0-32.9-12.4-41.2C64.3,0.1,52.6-0.3,40.7,6.5C35.1,9.7,30.2,13.9,26.2,19
					c-0.3,0.4-0.9,0.4-1.3,0.2c-0.4-0.3-0.4-0.9-0.2-1.3c4.1-5.3,9.2-9.7,15-13c8.6-4.9,22-8.6,37.1,1.5C89.8,15,95.2,32.5,90,49.6
					C85.3,65.5,70.8,82.3,44.5,82.3z"/>
			</g>
			<g id="_Grupo_6">
				<path id="_Trazado_compuesto_" class="st0" d="M74.9,79.5c-5.3,0.1-10.6-0.9-15.6-2.8C40.9,69.4,36.1,59.5,36,59v-0.3
					c-0.3-2.3,2.6-18.6,14-31.1c4-4.6,8.9-8.2,14.5-10.6c-19.2-5.7-38.4,2.4-38.8,2.4c-0.4,0.2-1,0-1.2-0.4s0-1,0.4-1.2H25
					c5.4-2.2,11-3.6,16.8-4.2c6.8-0.8,16-1,25.1,2.3c5.3-1.9,11-2.8,16.6-2.8c0.5-0.1,1.1,0.2,1.2,0.8c0.1,0.5-0.2,1.1-0.8,1.2
					c-0.1,0-0.3,0-0.4,0l0,0c-4.7,0-9.4,0.7-13.8,2c2.2,0.9,4.3,1.9,6.2,3.3C99.2,35.1,99.5,51.3,99.5,52c0,0.5-0.3,0.9-0.8,1
					c-2.4,0.2-5.4,0.8-5.9,1.5v0.2c0.3,0.9,0.7,1.8,1.3,2.6c0.8,1.3,1.6,2.6,0.7,3.6c-0.8,0.6-1.6,1.2-2.5,1.6
					c0.4,0.7,0.6,1.5,0.3,2.3c-0.5,0.7-1.1,1.2-1.8,1.6c-0.4,0.2-0.7,0.5-1,0.8c0,0.3,0.2,1,0.2,1.6c0.5,3.1,1.3,8.8-2.8,9.8
					C83.2,79.1,79,79.5,74.9,79.5z M37.8,58.3c0.7,1.1,5.7,10.1,22.2,16.6c10.3,4.1,21.5,2.6,27.2,1.3c2.3-0.5,1.8-4.2,1.3-7.7
					c-0.1-0.7-0.2-1.3-0.2-2c0-1,1-1.6,1.8-2.3c0.3-0.3,1-0.7,1-0.8c-0.2-0.5-0.4-0.9-0.8-1.3c-0.2-0.2-0.3-0.5-0.2-0.8
					c0-0.3,0.3-0.5,0.5-0.7c1-0.4,1.9-0.9,2.8-1.5c-0.2-0.5-0.5-1-0.8-1.5c-0.7-1-1.3-2.1-1.6-3.3c-0.1-0.6,0-1.2,0.3-1.6
					c1.1-1.5,4.6-2,6.3-2.1c-0.3-3.4-3.3-17.1-22.6-29.3c-2.5-1.6-5.1-2.9-7.8-3.9c-6,2.4-11.4,6.1-15.8,10.9
					C40.7,40.6,37.6,55.9,37.8,58.3L37.8,58.3z"/>
			</g>
			<g id="_Grupo_7">
				<path id="_Trazado_3" class="st0" d="M89.6,74.8c-0.4,0-0.8-0.3-0.8-0.7c0-0.2-3.1-13.7-16.8-19.2c-20.7-8.3-34.4,4.2-34.5,4.4
					c-0.3,0.4-0.9,0.4-1.3,0.1s-0.4-0.9-0.1-1.3c0,0,0,0,0.1-0.1c2.9-2.5,6.3-4.4,9.9-5.7c5.9-2.1,15.1-3.6,26.4,1
					c8.9,3.6,15.5,11.2,17.9,20.5c0.1,0.5-0.1,1-0.6,1.1l0,0C89.7,74.8,89.7,74.8,89.6,74.8z"/>
			</g>
			<g id="_Grupo_8">
				<path id="_Trazado_4" class="st0" d="M68.6,90.9h-0.3l-24.1-8.6c-0.4-0.2-0.6-0.7-0.4-1.2c0.2-0.4,0.6-0.6,1.1-0.5l22.8,8.1
					c0-2.3,0.2-7.2,2.4-9.4c0.9-1,2.1-1.5,3.4-1.5l0,0c0.6,0,1,0.4,1,1s-0.4,1-1,1c-0.8,0-1.5,0.3-2,0.8c-2,2.1-2,7.5-1.8,9.5
					c0,0.3-0.1,0.6-0.3,0.8L68.6,90.9z"/>
			</g>
			<g id="_Grupo_9">
				<circle id="_Trazado_5" class="st0" cx="26" cy="17.5" r="3.4"/>
			</g>
			<g id="_Grupo_10">
				<circle id="_Trazado_6" class="st0" cx="66.1" cy="16.1" r="3.4"/>
			</g>
			<g id="_Grupo_11">
				<circle id="_Trazado_7" class="st0" cx="91" cy="34.4" r="3.4"/>
			</g>
			<g id="_Grupo_12">
				<circle id="_Trazado_8" class="st0" cx="37.5" cy="58" r="5.2"/>
			</g>
			<g id="_Grupo_13">
				<circle id="_Trazado_9" class="st0" cx="29.3" cy="33.4" r="4.4"/>
			</g>
			<g id="_Grupo_14">
				<circle id="_Trazado_10" class="st0" cx="19" cy="46.4" r="3.6"/>
			</g>
			<g id="_Grupo_15">
				<circle id="_Trazado_11" class="st0" cx="12.5" cy="34.7" r="2.9"/>
			</g>
			<g id="_Grupo_16">
				<circle id="_Trazado_12" class="st0" cx="13" cy="61.1" r="2.9"/>
			</g>
			<g id="_Grupo_17">
				<circle id="_Trazado_13" class="st0" cx="2.9" cy="49.4" r="2.9"/>
			</g>
			<g id="_Grupo_18">
				<circle id="_Trazado_14" class="st0" cx="29.3" cy="70.7" r="4.4"/>
			</g>
			<g id="_Grupo_19">
				<circle id="_Trazado_15" class="st0" cx="46.1" cy="33.4" r="4.4"/>
			</g>
			<g id="_Grupo_20">
				<circle id="_Trazado_16" class="st0" cx="64.3" cy="77.6" r="3.4"/>
			</g>
			<g id="_Grupo_21">
				<circle id="_Trazado_17" class="st0" cx="83.9" cy="61.1" r="3.4"/>
			</g>
			<g id="_Grupo_22">
				<circle id="_Trazado_18" class="st0" cx="44.5" cy="81.3" r="2.3"/>
			</g>
		</g>
	</g>
	<g id="_Grupo_23">
		<g class="st1">
			<path class="st0" d="M196.6,45.4v19.5h-5.3V17.7c4.6-0.8,9.4-1.1,14.6-1.1c1.6,0,3,0,4.3,0.1s2.6,0.3,3.9,0.6s2.5,0.6,3.5,1.1
				c1,0.4,2,1,2.9,1.8c0.9,0.7,1.6,1.6,2.2,2.6c0.6,1,1,2.2,1.4,3.6c0.3,1.4,0.5,3,0.5,4.7c0,2.4-0.3,4.4-0.9,6.2
				c-0.6,1.7-1.4,3.1-2.4,4.2c-1,1.1-2.3,1.9-3.9,2.6s-3.2,1.1-4.9,1.3s-3.7,0.4-6,0.4C204.1,45.7,200.8,45.6,196.6,45.4z
				 M196.6,21.5V41c2.7,0.3,5.8,0.4,9.3,0.4c1.8,0,3.4-0.1,4.7-0.3s2.6-0.5,3.7-1c1.1-0.5,2-1.1,2.8-1.9c0.7-0.8,1.3-1.8,1.6-3
				c0.4-1.2,0.6-2.6,0.6-4.3c0-3.6-1-6.2-3-7.8s-5.4-2.3-10.1-2.3C203,20.9,199.8,21.1,196.6,21.5z"/>
		</g>
		<g class="st1">
			<path class="st0" d="M248.6,65.4c-2.3,0-4.4-0.3-6.2-0.9s-3.2-1.5-4.3-2.5s-2-2.4-2.7-4s-1.2-3.3-1.5-5.1s-0.4-3.9-0.4-6.1
				c0-3.4,0.3-6.2,0.8-8.5s1.4-4.2,2.7-5.8c1.3-1.6,2.9-2.7,4.9-3.4s4.6-1,7.6-1c2.4,0,4.6,0.3,6.4,0.8c1.8,0.5,3.3,1.2,4.5,2.1
				s2.1,2.1,2.9,3.5c0.7,1.4,1.2,2.9,1.5,4.5s0.4,3.5,0.4,5.6c0,1.1,0,2.3-0.1,3.5c-2.1,0.3-5,0.7-8.6,1c-3.7,0.3-6.8,0.6-9.3,0.7
				l-8.7,0.3c0.1,1.3,0.3,2.5,0.5,3.4s0.5,1.9,0.9,2.8c0.4,0.9,0.9,1.6,1.5,2.2c0.6,0.6,1.3,1.1,2.2,1.6c0.9,0.4,1.9,0.8,3,1
				c1.2,0.2,2.5,0.3,4.1,0.3c3.6,0,7.9-0.3,12.9-1l0.5,4c-2.6,0.4-5,0.7-7.3,0.9S251.7,65.4,248.6,65.4z M238.3,46.1l9.7-0.5
				c4.3-0.2,8.3-0.5,12.1-1c0.1-0.7,0.1-1.5,0.1-2.6c0-1.6-0.2-3-0.6-4.2s-1-2.3-1.8-3.2s-1.9-1.6-3.3-2.1c-1.4-0.5-3.1-0.7-5-0.7
				c-1.8,0-3.4,0.2-4.7,0.6c-1.3,0.4-2.4,0.9-3.2,1.7s-1.5,1.7-2,2.9s-0.8,2.5-1,3.9S238.3,44.1,238.3,46.1z"/>
		</g>
		<g class="st1">
			<path class="st0" d="M281,64.9h-5V37c0-2.2,0.1-4.3,0.2-6.2c3.7-2,8.3-2.9,13.7-2.9c1.3,0,2.5,0.1,3.4,0.2l-0.4,4.2
				c-0.8-0.1-1.8-0.1-3-0.1c-1.5,0-3,0.1-4.6,0.4c-1.6,0.3-3,0.7-4.2,1.2c-0.1,1.6-0.1,3.5-0.1,5.7V64.9z"/>
		</g>
		<g class="st1">
			<path class="st0" d="M302.5,52.1V28.4h5v22.8c0,1.2,0,2.3,0.1,3.2s0.3,1.7,0.5,2.5s0.6,1.5,1.1,2s1.1,0.9,1.9,1.3
				c0.8,0.4,1.7,0.7,2.8,0.8c1.1,0.2,2.4,0.2,4,0.2c1.5,0,3.3-0.2,5.2-0.5c2-0.3,3.5-0.8,4.6-1.3c0.1-1.6,0.1-3.5,0.1-5.7V28.4h5
				v27.7c0,1.9-0.1,4-0.2,6.2c-4.7,2-10.1,3.1-16.4,3.1c-1.7,0-3.3-0.1-4.7-0.4c-1.4-0.2-2.5-0.6-3.5-1s-1.8-0.9-2.5-1.6
				c-0.7-0.7-1.2-1.3-1.6-2s-0.7-1.5-0.9-2.5c-0.2-1-0.4-1.9-0.4-2.8C302.5,54.3,302.5,53.3,302.5,52.1z M314.8,22.3l6-9.8h6l-8,9.8
				H314.8z"/>
		</g>
		<g class="st1">
			<path class="st0" d="M109.6,64.9V17.1h9.7v47.8H109.6z"/>
			<path class="st0" d="M131.7,64.1V17.9c4.7-0.9,9.9-1.4,15.6-1.4c2,0,3.8,0.1,5.4,0.3s3.1,0.5,4.4,0.9c1.3,0.4,2.5,0.9,3.6,1.5
				c1,0.6,2,1.3,2.7,2.1c0.8,0.8,1.5,1.7,2,2.7s1,2.2,1.4,3.3c0.4,1.1,0.7,2.5,0.9,3.9c0.2,1.5,0.4,3,0.5,4.5s0.1,3.2,0.1,5.1
				c0,1.9,0,3.6-0.1,5.1s-0.2,3-0.5,4.5c-0.2,1.5-0.5,2.8-0.9,3.9s-0.8,2.2-1.4,3.3s-1.2,2-2,2.7c-0.8,0.8-1.7,1.5-2.7,2.1
				s-2.2,1.1-3.6,1.5c-1.3,0.4-2.8,0.7-4.4,0.9s-3.5,0.3-5.4,0.3C141.6,65.4,136.4,65,131.7,64.1z M145.9,24.5
				c-1.4,0-2.9,0.1-4.5,0.3v32.3c1.5,0.2,3.1,0.3,4.5,0.3c1.8,0,3.3-0.2,4.7-0.5c1.3-0.3,2.5-0.7,3.4-1.1c0.9-0.4,1.6-1.1,2.3-2
				c0.6-0.9,1.1-1.7,1.4-2.4c0.3-0.7,0.6-1.8,0.7-3.2c0.2-1.4,0.2-2.5,0.3-3.4s0-2.2,0-3.9s0-3,0-3.9s-0.1-2-0.3-3.4
				s-0.4-2.4-0.7-3.2c-0.3-0.7-0.8-1.5-1.4-2.4s-1.4-1.6-2.3-2c-0.9-0.4-2-0.8-3.4-1.1S147.7,24.5,145.9,24.5z"/>
		</g>
		<g class="st1">
			<path class="st0" d="M110.7,77.1v3.7h-1v-9c0.9-0.1,1.8-0.2,2.8-0.2c0.3,0,0.6,0,0.8,0c0.2,0,0.5,0.1,0.7,0.1s0.5,0.1,0.7,0.2
				s0.4,0.2,0.5,0.3c0.2,0.1,0.3,0.3,0.4,0.5s0.2,0.4,0.3,0.7s0.1,0.6,0.1,0.9c0,0.4-0.1,0.8-0.2,1.2s-0.3,0.6-0.5,0.8
				c-0.2,0.2-0.4,0.4-0.7,0.5c-0.3,0.1-0.6,0.2-0.9,0.3c-0.3,0-0.7,0.1-1.1,0.1C112.1,77.1,111.5,77.1,110.7,77.1z M110.7,72.6v3.7
				c0.5,0.1,1.1,0.1,1.8,0.1c0.3,0,0.6,0,0.9-0.1c0.3,0,0.5-0.1,0.7-0.2s0.4-0.2,0.5-0.4c0.1-0.1,0.2-0.3,0.3-0.6
				c0.1-0.2,0.1-0.5,0.1-0.8c0-0.7-0.2-1.2-0.6-1.5s-1-0.4-1.9-0.4C111.9,72.4,111.3,72.5,110.7,72.6z"/>
		</g>
		<g class="st1">
			<path class="st0" d="M117.5,79v-7.8h0.9V79c0,0.4,0,0.7,0.1,1s0.2,0.5,0.4,0.8l-0.8,0.4c-0.2-0.3-0.4-0.6-0.5-0.9
				C117.6,79.9,117.5,79.5,117.5,79z"/>
		</g>
		<g class="st1">
			<path class="st0" d="M120.6,74.7l-0.1-0.7c1-0.2,1.9-0.2,2.6-0.2c0.3,0,0.6,0,0.8,0.1s0.5,0.1,0.7,0.2s0.4,0.2,0.6,0.4
				s0.3,0.4,0.4,0.6c0.1,0.3,0.1,0.5,0.1,0.9v3.3c0,0.4,0,0.8,0,1.2c-0.8,0.4-1.7,0.6-2.9,0.6c-0.9,0-1.6-0.2-2.1-0.5
				c-0.4-0.3-0.6-0.9-0.6-1.6c0-0.6,0.1-1.1,0.4-1.5s0.7-0.6,1.3-0.7c0.6-0.1,1.6-0.2,3-0.2v-0.3c0-0.3,0-0.5-0.1-0.7
				s-0.2-0.4-0.3-0.5c-0.1-0.1-0.3-0.2-0.6-0.3s-0.6-0.1-0.9-0.1C122.3,74.5,121.5,74.6,120.6,74.7z M121,78.8c0,0.2,0,0.4,0.1,0.5
				c0,0.2,0.1,0.3,0.2,0.4s0.2,0.2,0.4,0.2s0.3,0.1,0.5,0.1s0.4,0,0.7,0c0.7,0,1.3-0.1,1.9-0.3c0-0.3,0-0.7,0-1.1v-1.5
				c-1.3,0-2.1,0.1-2.6,0.2c-0.2,0-0.4,0.1-0.5,0.2s-0.3,0.1-0.4,0.3s-0.2,0.2-0.2,0.4C121.1,78.3,121,78.5,121,78.8z"/>
		</g>
		<g class="st1">
			<path class="st0" d="M128.4,72l0.9-0.2v2h1.5v0.7h-1.5v4.3c0,0.2,0,0.4,0.1,0.6c0,0.2,0.1,0.3,0.2,0.4c0.1,0.1,0.2,0.1,0.4,0.2
				c0.1,0,0.3,0,0.5,0c0.1,0,0.2,0,0.4,0l0.1,0.7c-0.3,0-0.5,0.1-0.8,0.1c-0.6,0-1.1-0.1-1.4-0.4c-0.3-0.3-0.4-0.8-0.4-1.4v-4.5
				h-1.3v-0.7h1.3V72z"/>
		</g>
		<g class="st1">
			<path class="st0" d="M132.6,74.7l-0.1-0.7c1-0.2,1.9-0.2,2.6-0.2c0.3,0,0.6,0,0.8,0.1s0.5,0.1,0.7,0.2s0.4,0.2,0.6,0.4
				s0.3,0.4,0.4,0.6c0.1,0.3,0.1,0.5,0.1,0.9v3.3c0,0.4,0,0.8,0,1.2c-0.8,0.4-1.7,0.6-2.9,0.6c-0.9,0-1.6-0.2-2.1-0.5
				s-0.6-0.9-0.6-1.6c0-0.6,0.1-1.1,0.4-1.5s0.7-0.6,1.3-0.7s1.6-0.2,3-0.2v-0.3c0-0.3,0-0.5-0.1-0.7s-0.2-0.4-0.3-0.5
				s-0.3-0.2-0.6-0.3c-0.2-0.1-0.6-0.1-0.9-0.1C134.3,74.5,133.5,74.6,132.6,74.7z M133,78.8c0,0.2,0,0.4,0.1,0.5
				c0,0.2,0.1,0.3,0.2,0.4c0.1,0.1,0.2,0.2,0.4,0.2c0.2,0.1,0.3,0.1,0.5,0.1s0.4,0,0.7,0c0.7,0,1.3-0.1,1.9-0.3c0-0.3,0-0.7,0-1.1
				v-1.5c-1.3,0-2.1,0.1-2.6,0.2c-0.2,0-0.4,0.1-0.5,0.2s-0.3,0.1-0.4,0.3c-0.1,0.1-0.2,0.2-0.2,0.4C133.1,78.3,133,78.5,133,78.8z"
				/>
		</g>
		<g class="st1">
			<path class="st0" d="M141.3,73.1v0.8h1.6v0.7h-1.6v6.2h-0.9v-6.2h-1.2v-0.7h1.2v-0.7c0-0.7,0.2-1.2,0.5-1.5s0.8-0.5,1.5-0.5
				c0.2,0,0.4,0,0.6,0l-0.1,0.7h-0.3c-0.4,0-0.7,0.1-0.9,0.3S141.3,72.6,141.3,73.1z"/>
		</g>
		<g class="st1">
			<path class="st0" d="M147,80.9c-0.6,0-1-0.1-1.4-0.2s-0.7-0.3-0.9-0.6c-0.2-0.3-0.4-0.7-0.5-1.1s-0.2-1-0.2-1.7s0.1-1.2,0.2-1.7
				c0.1-0.4,0.3-0.8,0.5-1.1c0.2-0.3,0.6-0.5,0.9-0.6c0.4-0.1,0.9-0.2,1.4-0.2s1,0.1,1.4,0.2s0.7,0.3,0.9,0.6
				c0.2,0.3,0.4,0.7,0.5,1.1s0.2,1,0.2,1.6s-0.1,1.2-0.2,1.6c-0.1,0.4-0.3,0.8-0.5,1.1c-0.2,0.3-0.6,0.5-0.9,0.6
				C148,80.8,147.6,80.9,147,80.9z M147,80.1c0.5,0,1-0.1,1.3-0.3c0.3-0.2,0.5-0.5,0.6-0.8c0.1-0.4,0.2-0.9,0.2-1.7
				c0-0.4,0-0.8-0.1-1.1c0-0.3-0.1-0.6-0.2-0.8c-0.1-0.2-0.2-0.4-0.4-0.5s-0.4-0.2-0.6-0.3s-0.5-0.1-0.8-0.1s-0.6,0-0.8,0.1
				s-0.4,0.1-0.6,0.3c-0.2,0.1-0.3,0.3-0.4,0.5c-0.1,0.2-0.2,0.5-0.2,0.8s-0.1,0.7-0.1,1.1s0,0.8,0.1,1.1c0,0.3,0.1,0.6,0.2,0.8
				c0.1,0.2,0.2,0.4,0.4,0.5s0.4,0.2,0.6,0.3C146.4,80.1,146.7,80.1,147,80.1z"/>
		</g>
		<g class="st1">
			<path class="st0" d="M152.8,80.8h-0.9v-5.3c0-0.4,0-0.8,0-1.2c0.7-0.4,1.6-0.6,2.6-0.6c0.3,0,0.5,0,0.6,0l-0.1,0.8
				c-0.2,0-0.4,0-0.6,0c-0.3,0-0.6,0-0.9,0.1s-0.6,0.1-0.8,0.2c0,0.3,0,0.7,0,1.1L152.8,80.8L152.8,80.8z"/>
		</g>
		<g class="st1">
			<path class="st0" d="M157.5,76v4.8h-0.9v-5.3c0-0.4,0-0.8,0-1.2c0.4-0.2,0.8-0.3,1.4-0.4c0.5-0.1,1-0.2,1.5-0.2
				c0.8,0,1.4,0.2,1.8,0.6c0.8-0.4,1.6-0.6,2.5-0.6c0.3,0,0.6,0,0.8,0.1s0.4,0.1,0.6,0.2s0.3,0.2,0.4,0.3c0.1,0.1,0.2,0.3,0.3,0.4
				s0.1,0.3,0.2,0.5s0.1,0.4,0.1,0.5c0,0.2,0,0.4,0,0.6v4.5h-0.9v-4.3c0-0.3,0-0.5,0-0.7s-0.1-0.4-0.2-0.5s-0.2-0.3-0.3-0.4
				s-0.3-0.2-0.5-0.2s-0.4-0.1-0.7-0.1s-0.6,0-0.9,0.1s-0.6,0.2-0.9,0.3c0.1,0.3,0.2,0.7,0.2,1.3v4.5h-0.9v-4.3c0-0.3,0-0.6-0.1-0.9
				c0-0.2-0.1-0.4-0.3-0.6c-0.1-0.2-0.3-0.3-0.5-0.4s-0.5-0.1-0.9-0.1c-0.2,0-0.5,0-0.8,0.1s-0.6,0.1-0.8,0.2
				C157.5,75.2,157.5,75.6,157.5,76z"/>
			<path class="st0" d="M168.3,74.7l-0.1-0.7c1-0.2,1.9-0.2,2.6-0.2c0.3,0,0.6,0,0.8,0.1s0.5,0.1,0.7,0.2s0.4,0.2,0.6,0.4
				s0.3,0.4,0.4,0.6c0.1,0.3,0.1,0.5,0.1,0.9v3.3c0,0.4,0,0.8,0,1.2c-0.8,0.4-1.7,0.6-2.9,0.6c-0.9,0-1.6-0.2-2.1-0.5
				s-0.6-0.9-0.6-1.6c0-0.6,0.1-1.1,0.4-1.5s0.7-0.6,1.3-0.7s1.6-0.2,3-0.2v-0.3c0-0.3,0-0.5-0.1-0.7s-0.2-0.4-0.3-0.5
				s-0.3-0.2-0.6-0.3c-0.2-0.1-0.6-0.1-0.9-0.1C170.1,74.5,169.3,74.6,168.3,74.7z M168.8,78.8c0,0.2,0,0.4,0.1,0.5
				c0,0.2,0.1,0.3,0.2,0.4c0.1,0.1,0.2,0.2,0.4,0.2c0.2,0.1,0.3,0.1,0.5,0.1s0.4,0,0.7,0c0.7,0,1.3-0.1,1.9-0.3c0-0.3,0-0.7,0-1.1
				v-1.5c-1.3,0-2.1,0.1-2.6,0.2c-0.2,0-0.4,0.1-0.5,0.2s-0.3,0.1-0.4,0.3c-0.1,0.1-0.2,0.2-0.2,0.4
				C168.8,78.3,168.8,78.5,168.8,78.8z"/>
			<path class="st0" d="M183.7,74v-2.8h0.9v8c0,0.4,0,0.8,0,1.2c-0.7,0.4-1.6,0.6-2.6,0.6c-0.5,0-0.8,0-1.2-0.1s-0.6-0.2-0.9-0.4
				s-0.5-0.4-0.6-0.7c-0.2-0.3-0.3-0.6-0.3-1c-0.1-0.4-0.1-0.9-0.1-1.4c0-0.7,0.1-1.2,0.2-1.7c0.1-0.5,0.3-0.8,0.5-1.1
				c0.2-0.3,0.5-0.5,0.9-0.6s0.8-0.2,1.3-0.2C182.4,73.8,183,73.8,183.7,74z M183.7,74.8c-0.2-0.1-0.5-0.1-0.8-0.2s-0.6-0.1-0.8-0.1
				s-0.5,0-0.7,0s-0.4,0.1-0.5,0.1c-0.2,0.1-0.3,0.1-0.4,0.2c-0.1,0.1-0.2,0.2-0.3,0.3c-0.1,0.1-0.1,0.2-0.2,0.4s-0.1,0.3-0.1,0.5
				s-0.1,0.4-0.1,0.6s0,0.4,0,0.7c0,0.4,0,0.7,0.1,1c0,0.3,0.1,0.5,0.2,0.8s0.2,0.4,0.4,0.6c0.2,0.1,0.4,0.3,0.6,0.3
				c0.3,0.1,0.5,0.1,0.9,0.1c0.3,0,0.6,0,0.9-0.1c0.3-0.1,0.6-0.1,0.8-0.2c0-0.4,0-0.8,0-1.1L183.7,74.8L183.7,74.8z"/>
			<path class="st0" d="M189.4,80.9c-0.4,0-0.8-0.1-1.2-0.2s-0.6-0.3-0.8-0.5s-0.4-0.5-0.5-0.8s-0.2-0.6-0.3-1
				c-0.1-0.3-0.1-0.7-0.1-1.2c0-0.6,0.1-1.2,0.2-1.6c0.1-0.4,0.3-0.8,0.5-1.1c0.2-0.3,0.5-0.5,0.9-0.6s0.9-0.2,1.4-0.2
				s0.9,0,1.2,0.1s0.6,0.2,0.9,0.4s0.4,0.4,0.5,0.7c0.1,0.3,0.2,0.6,0.3,0.9s0.1,0.7,0.1,1.1c0,0.2,0,0.4,0,0.7
				c-0.4,0.1-0.9,0.1-1.6,0.2c-0.7,0.1-1.3,0.1-1.8,0.1l-1.6,0.1c0,0.2,0.1,0.5,0.1,0.7s0.1,0.4,0.2,0.5c0.1,0.2,0.2,0.3,0.3,0.4
				s0.3,0.2,0.4,0.3c0.2,0.1,0.4,0.1,0.6,0.2c0.2,0,0.5,0.1,0.8,0.1c0.7,0,1.5-0.1,2.5-0.2l0.1,0.8c-0.5,0.1-1,0.1-1.4,0.2
				C190.5,80.9,190,80.9,189.4,80.9z M187.4,77.2l1.8-0.1c0.8,0,1.6-0.1,2.3-0.2c0-0.1,0-0.3,0-0.5c0-0.3,0-0.6-0.1-0.8
				c-0.1-0.2-0.2-0.4-0.3-0.6c-0.2-0.2-0.4-0.3-0.6-0.4c-0.3-0.1-0.6-0.1-1-0.1c-0.3,0-0.6,0-0.9,0.1s-0.4,0.2-0.6,0.3
				c-0.2,0.1-0.3,0.3-0.4,0.5c-0.1,0.2-0.2,0.5-0.2,0.7C187.4,76.5,187.4,76.8,187.4,77.2z"/>
		</g>
		<g class="st1">
			<path class="st0" d="M198.3,80.8h-1l3.1-8.5c0.2-0.5,0.4-0.7,0.8-0.7c0.4,0,0.6,0.2,0.8,0.7l3.1,8.5H204l-0.9-2.6h-3.9
				L198.3,80.8z M199.5,77.4h3.3l-1.7-4.6L199.5,77.4z"/>
		</g>
		<g class="st1">
			<path class="st0" d="M206.4,78.4v-4.5h0.9v4.3c0,0.2,0,0.4,0,0.5s0,0.3,0.1,0.4s0.1,0.3,0.1,0.4c0.1,0.1,0.1,0.2,0.2,0.3
				c0.1,0.1,0.2,0.1,0.4,0.2c0.1,0,0.3,0.1,0.5,0.1s0.4,0,0.7,0s0.6,0,1-0.1s0.7-0.1,0.9-0.2c0-0.3,0-0.7,0-1.1v-4.8h0.9v5.3
				c0,0.4,0,0.8,0,1.2c-0.9,0.4-1.9,0.6-3.1,0.6c-0.3,0-0.6,0-0.9-0.1c-0.3,0-0.5-0.1-0.7-0.2s-0.3-0.2-0.5-0.3s-0.2-0.3-0.3-0.4
				s-0.1-0.3-0.2-0.5s-0.1-0.4-0.1-0.5C206.4,78.8,206.4,78.6,206.4,78.4z"/>
		</g>
		<g class="st1">
			<path class="st0" d="M215,72l0.9-0.2v2h1.5v0.7h-1.5v4.3c0,0.2,0,0.4,0.1,0.6c0,0.2,0.1,0.3,0.2,0.4c0.1,0.1,0.2,0.1,0.4,0.2
				c0.1,0,0.3,0,0.5,0c0.1,0,0.2,0,0.4,0l0.1,0.7c-0.3,0-0.5,0.1-0.8,0.1c-0.6,0-1.1-0.1-1.4-0.4c-0.3-0.3-0.4-0.8-0.4-1.4v-4.5
				h-1.3v-0.7h1.3V72z"/>
		</g>
		<g class="st1">
			<path class="st0" d="M221.5,80.9c-0.4,0-0.8-0.1-1.2-0.2s-0.6-0.3-0.8-0.5s-0.4-0.5-0.5-0.8s-0.2-0.6-0.3-1
				c-0.1-0.3-0.1-0.7-0.1-1.2c0-0.6,0.1-1.2,0.2-1.6c0.1-0.4,0.3-0.8,0.5-1.1c0.2-0.3,0.5-0.5,0.9-0.6s0.9-0.2,1.4-0.2
				s0.9,0,1.2,0.1s0.6,0.2,0.9,0.4s0.4,0.4,0.5,0.7c0.1,0.3,0.2,0.6,0.3,0.9s0.1,0.7,0.1,1.1c0,0.2,0,0.4,0,0.7
				c-0.4,0.1-0.9,0.1-1.6,0.2c-0.7,0.1-1.3,0.1-1.8,0.1l-1.6,0.1c0,0.2,0.1,0.5,0.1,0.7s0.1,0.4,0.2,0.5c0.1,0.2,0.2,0.3,0.3,0.4
				s0.3,0.2,0.4,0.3c0.2,0.1,0.4,0.1,0.6,0.2c0.2,0,0.5,0.1,0.8,0.1c0.7,0,1.5-0.1,2.5-0.2l0.1,0.8c-0.5,0.1-1,0.1-1.4,0.2
				C222.6,80.9,222.1,80.9,221.5,80.9z M219.5,77.2l1.8-0.1c0.8,0,1.6-0.1,2.3-0.2c0-0.1,0-0.3,0-0.5c0-0.3,0-0.6-0.1-0.8
				c-0.1-0.2-0.2-0.4-0.3-0.6c-0.2-0.2-0.4-0.3-0.6-0.4c-0.3-0.1-0.6-0.1-1-0.1c-0.3,0-0.6,0-0.9,0.1s-0.4,0.2-0.6,0.3
				c-0.2,0.1-0.3,0.3-0.4,0.5c-0.1,0.2-0.2,0.5-0.2,0.7C219.6,76.5,219.5,76.8,219.5,77.2z"/>
			<path class="st0" d="M227.3,76v4.8h-0.9v-5.3c0-0.4,0-0.8,0-1.2c0.4-0.2,0.9-0.3,1.4-0.4s1.1-0.2,1.7-0.2c0.3,0,0.6,0,0.9,0.1
				c0.3,0,0.5,0.1,0.7,0.2s0.3,0.2,0.5,0.3s0.2,0.3,0.3,0.4s0.1,0.3,0.2,0.5s0.1,0.4,0.1,0.5c0,0.2,0,0.4,0,0.6v4.5h-0.9v-4.3
				c0-0.2,0-0.4,0-0.5s0-0.3-0.1-0.4c0-0.1-0.1-0.3-0.1-0.4c-0.1-0.1-0.1-0.2-0.2-0.3s-0.2-0.1-0.4-0.2c-0.1,0-0.3-0.1-0.5-0.1
				s-0.4,0-0.7,0s-0.6,0-1,0.1s-0.7,0.1-0.9,0.2C227.3,75.2,227.3,75.6,227.3,76z"/>
		</g>
		<g class="st1">
			<path class="st0" d="M234.8,72l0.9-0.2v2h1.5v0.7h-1.5v4.3c0,0.2,0,0.4,0.1,0.6c0,0.2,0.1,0.3,0.2,0.4c0.1,0.1,0.2,0.1,0.4,0.2
				c0.1,0,0.3,0,0.5,0c0.1,0,0.2,0,0.4,0l0.1,0.7c-0.3,0-0.5,0.1-0.8,0.1c-0.6,0-1.1-0.1-1.4-0.4c-0.3-0.3-0.4-0.8-0.4-1.4v-4.5
				h-1.3v-0.7h1.3V72z"/>
		</g>
		<g class="st1">
			<path class="st0" d="M239.8,72.3c-0.1,0.1-0.2,0.1-0.5,0.1s-0.4,0-0.5-0.1s-0.1-0.3-0.1-0.5s0-0.4,0.1-0.5s0.2-0.2,0.4-0.2
				s0.4,0.1,0.5,0.2s0.1,0.3,0.1,0.5C239.9,72,239.8,72.2,239.8,72.3z M238.8,80.8v-6.9h0.9v6.9H238.8z"/>
		</g>
		<g class="st1">
			<path class="st0" d="M246,79.9l0.1,0.8c-0.7,0.1-1.3,0.2-1.8,0.2c-0.3,0-0.6,0-0.9-0.1s-0.5-0.2-0.7-0.3
				c-0.2-0.1-0.4-0.3-0.5-0.4s-0.3-0.4-0.3-0.6c-0.1-0.2-0.2-0.4-0.2-0.7s-0.1-0.5-0.1-0.8s0-0.5,0-0.8s0-0.6,0-0.9s0.1-0.5,0.1-0.8
				c0.1-0.2,0.1-0.5,0.2-0.6c0.1-0.2,0.2-0.3,0.4-0.5s0.3-0.3,0.5-0.4s0.5-0.2,0.7-0.2c0.3-0.1,0.6-0.1,1-0.1c0.5,0,1.1,0.1,1.6,0.2
				l-0.1,0.7c-0.4-0.1-0.8-0.1-1.2-0.1c-0.2,0-0.4,0-0.6,0c-0.2,0-0.3,0-0.5,0.1s-0.3,0.1-0.4,0.1s-0.2,0.1-0.3,0.2
				s-0.2,0.1-0.2,0.2s-0.1,0.2-0.2,0.3c0,0.1-0.1,0.2-0.1,0.3s0,0.3-0.1,0.4c0,0.2,0,0.3,0,0.5s0,0.3,0,0.5c0,0.3,0,0.5,0,0.7
				s0,0.4,0.1,0.6s0.1,0.4,0.2,0.5c0.1,0.1,0.2,0.3,0.3,0.4s0.3,0.2,0.4,0.3s0.4,0.1,0.6,0.2c0.2,0,0.5,0.1,0.8,0.1
				C245.2,80.1,245.5,80,246,79.9z"/>
		</g>
		<g class="st1">
			<path class="st0" d="M247.8,74.7l-0.1-0.7c1-0.2,1.9-0.2,2.6-0.2c0.3,0,0.6,0,0.8,0.1s0.5,0.1,0.7,0.2s0.4,0.2,0.6,0.4
				s0.3,0.4,0.4,0.6c0.1,0.3,0.1,0.5,0.1,0.9v3.3c0,0.4,0,0.8,0,1.2c-0.8,0.4-1.7,0.6-2.9,0.6c-0.9,0-1.6-0.2-2.1-0.5
				c-0.4-0.3-0.6-0.9-0.6-1.6c0-0.6,0.1-1.1,0.4-1.5s0.7-0.6,1.3-0.7s1.6-0.2,3-0.2v-0.3c0-0.3,0-0.5-0.1-0.7s-0.2-0.4-0.3-0.5
				s-0.3-0.2-0.6-0.3c-0.2-0.1-0.6-0.1-0.9-0.1C249.5,74.5,248.8,74.6,247.8,74.7z M248.3,78.8c0,0.2,0,0.4,0.1,0.5
				c0,0.2,0.1,0.3,0.2,0.4c0.1,0.1,0.2,0.2,0.4,0.2s0.3,0.1,0.5,0.1s0.4,0,0.7,0c0.7,0,1.3-0.1,1.9-0.3c0-0.3,0-0.7,0-1.1v-1.5
				c-1.3,0-2.1,0.1-2.6,0.2c-0.2,0-0.4,0.1-0.5,0.2s-0.3,0.1-0.3,0.3c-0.1,0.1-0.2,0.2-0.2,0.4S248.3,78.5,248.3,78.8z"/>
		</g>
		<g class="st1">
			<path class="st0" d="M259.3,79.9l0.1,0.8c-0.7,0.1-1.3,0.2-1.8,0.2c-0.3,0-0.6,0-0.9-0.1s-0.5-0.2-0.7-0.3
				c-0.2-0.1-0.4-0.3-0.5-0.4s-0.3-0.4-0.3-0.6c-0.1-0.2-0.2-0.4-0.2-0.7s-0.1-0.5-0.1-0.8s0-0.5,0-0.8s0-0.6,0-0.9s0.1-0.5,0.1-0.8
				c0.1-0.2,0.1-0.5,0.2-0.6c0.1-0.2,0.2-0.3,0.4-0.5s0.3-0.3,0.5-0.4c0.2-0.1,0.5-0.2,0.7-0.2c0.3-0.1,0.6-0.1,1-0.1
				c0.5,0,1.1,0.1,1.6,0.2l-0.1,0.7c-0.4-0.1-0.8-0.1-1.2-0.1c-0.2,0-0.4,0-0.6,0s-0.3,0-0.5,0.1s-0.3,0.1-0.4,0.1s-0.2,0.1-0.3,0.2
				c-0.1,0.1-0.2,0.1-0.2,0.2s-0.1,0.2-0.2,0.3c0,0.1-0.1,0.2-0.1,0.3s0,0.3-0.1,0.4c0,0.2,0,0.3,0,0.5s0,0.3,0,0.5
				c0,0.3,0,0.5,0,0.7s0,0.4,0.1,0.6s0.1,0.4,0.2,0.5c0.1,0.1,0.2,0.3,0.3,0.4s0.3,0.2,0.4,0.3s0.4,0.1,0.6,0.2
				c0.2,0,0.5,0.1,0.8,0.1C258.4,80.1,258.8,80,259.3,79.9z"/>
		</g>
		<g class="st1">
			<path class="st0" d="M261.8,72.3c-0.1,0.1-0.2,0.1-0.5,0.1c-0.2,0-0.4,0-0.5-0.1s-0.1-0.3-0.1-0.5s0-0.4,0.1-0.5s0.2-0.2,0.4-0.2
				c0.2,0,0.4,0.1,0.5,0.2s0.1,0.3,0.1,0.5C261.9,72,261.9,72.2,261.8,72.3z M260.9,80.8v-6.9h0.9v6.9H260.9z"/>
			<path class="st0" d="M266.7,80.9c-0.6,0-1-0.1-1.4-0.2s-0.7-0.3-0.9-0.6c-0.2-0.3-0.4-0.7-0.5-1.1s-0.2-1-0.2-1.7
				s0.1-1.2,0.2-1.7c0.1-0.4,0.3-0.8,0.5-1.1c0.2-0.3,0.6-0.5,0.9-0.6s0.9-0.2,1.4-0.2c0.6,0,1,0.1,1.4,0.2s0.7,0.3,0.9,0.6
				c0.2,0.3,0.4,0.7,0.5,1.1s0.2,1,0.2,1.6s-0.1,1.2-0.2,1.6s-0.3,0.8-0.5,1.1s-0.6,0.5-0.9,0.6C267.7,80.8,267.2,80.9,266.7,80.9z
				 M266.7,80.1c0.5,0,1-0.1,1.3-0.3c0.3-0.2,0.5-0.5,0.6-0.8c0.1-0.4,0.2-0.9,0.2-1.7c0-0.4,0-0.8-0.1-1.1c0-0.3-0.1-0.6-0.2-0.8
				c-0.1-0.2-0.2-0.4-0.4-0.5c-0.2-0.1-0.4-0.2-0.6-0.3s-0.5-0.1-0.8-0.1s-0.6,0-0.8,0.1c-0.2,0.1-0.4,0.1-0.6,0.3
				c-0.2,0.1-0.3,0.3-0.4,0.5s-0.2,0.5-0.2,0.8s-0.1,0.7-0.1,1.1c0,0.6,0,1,0.1,1.4s0.2,0.6,0.4,0.8c0.2,0.2,0.4,0.4,0.6,0.4
				C265.9,80,266.3,80.1,266.7,80.1z M266.1,72.8l1.1-1.9h1.1l-1.5,1.9H266.1z"/>
			<path class="st0" d="M272.5,76v4.8h-0.9v-5.3c0-0.4,0-0.8,0-1.2c0.4-0.2,0.9-0.3,1.4-0.4s1.1-0.2,1.7-0.2c0.3,0,0.6,0,0.9,0.1
				c0.3,0,0.5,0.1,0.7,0.2s0.3,0.2,0.5,0.3s0.2,0.3,0.3,0.4c0.1,0.1,0.1,0.3,0.2,0.5s0.1,0.4,0.1,0.5s0,0.4,0,0.6v4.5h-0.9v-4.3
				c0-0.2,0-0.4,0-0.5s0-0.3-0.1-0.4c0-0.1-0.1-0.3-0.1-0.4c-0.1-0.1-0.1-0.2-0.2-0.3s-0.2-0.1-0.4-0.2c-0.1,0-0.3-0.1-0.5-0.1
				s-0.4,0-0.7,0c-0.3,0-0.6,0-1,0.1s-0.7,0.1-0.9,0.2C272.5,75.2,272.5,75.6,272.5,76z"/>
			<path class="st0" d="M284.7,72.3l4.5,7.2v-7.8h0.9v8.5c0,0.2-0.1,0.4-0.2,0.5s-0.3,0.2-0.5,0.2s-0.3-0.1-0.5-0.2
				c-0.1-0.1-0.3-0.3-0.4-0.5L284,73v7.8h-0.9v-8.5c0-0.2,0.1-0.4,0.2-0.5s0.3-0.2,0.5-0.2s0.3,0.1,0.5,0.2
				C284.4,71.9,284.5,72,284.7,72.3z"/>
			<path class="st0" d="M292.3,74.7l-0.1-0.7c1-0.2,1.9-0.2,2.6-0.2c0.3,0,0.6,0,0.8,0.1s0.5,0.1,0.7,0.2s0.4,0.2,0.6,0.4
				s0.3,0.4,0.4,0.6c0.1,0.3,0.1,0.5,0.1,0.9v3.3c0,0.4,0,0.8,0,1.2c-0.8,0.4-1.7,0.6-2.9,0.6c-0.9,0-1.6-0.2-2.1-0.5
				c-0.4-0.3-0.6-0.9-0.6-1.6c0-0.6,0.1-1.1,0.4-1.5s0.7-0.6,1.3-0.7c0.6-0.1,1.6-0.2,3-0.2v-0.3c0-0.3,0-0.5-0.1-0.7
				s-0.2-0.4-0.3-0.5c-0.1-0.1-0.3-0.2-0.6-0.3s-0.6-0.1-0.9-0.1C294,74.5,293.2,74.6,292.3,74.7z M292.7,78.8c0,0.2,0,0.4,0.1,0.5
				c0,0.2,0.1,0.3,0.2,0.4s0.2,0.2,0.4,0.2s0.3,0.1,0.5,0.1s0.4,0,0.7,0c0.7,0,1.3-0.1,1.9-0.3c0-0.3,0-0.7,0-1.1v-1.5
				c-1.3,0-2.1,0.1-2.6,0.2c-0.2,0-0.4,0.1-0.5,0.2s-0.3,0.1-0.4,0.3s-0.2,0.2-0.2,0.4C292.7,78.3,292.7,78.5,292.7,78.8z"/>
		</g>
		<g class="st1">
			<path class="st0" d="M303.7,79.9l0.1,0.8c-0.7,0.1-1.3,0.2-1.8,0.2c-0.3,0-0.6,0-0.9-0.1s-0.5-0.2-0.7-0.3s-0.4-0.3-0.5-0.4
				s-0.3-0.4-0.3-0.6s-0.2-0.4-0.2-0.7s-0.1-0.5-0.1-0.8s0-0.5,0-0.8s0-0.6,0-0.9s0.1-0.5,0.1-0.8c0.1-0.2,0.1-0.5,0.2-0.6
				c0.1-0.2,0.2-0.3,0.4-0.5c0.2-0.2,0.3-0.3,0.5-0.4s0.5-0.2,0.7-0.2c0.3-0.1,0.6-0.1,1-0.1c0.5,0,1.1,0.1,1.6,0.2l-0.1,0.7
				c-0.4-0.1-0.8-0.1-1.2-0.1c-0.2,0-0.4,0-0.6,0s-0.3,0-0.5,0.1c-0.1,0-0.3,0.1-0.4,0.1s-0.2,0.1-0.3,0.2c-0.1,0.1-0.2,0.1-0.2,0.2
				c-0.1,0.1-0.1,0.2-0.2,0.3c0,0.1-0.1,0.2-0.1,0.3s0,0.3-0.1,0.4c0,0.2,0,0.3,0,0.5s0,0.3,0,0.5c0,0.3,0,0.5,0,0.7s0,0.4,0.1,0.6
				s0.1,0.4,0.2,0.5s0.2,0.3,0.3,0.4c0.1,0.1,0.3,0.2,0.4,0.3s0.4,0.1,0.6,0.2s0.5,0.1,0.8,0.1C302.9,80.1,303.3,80,303.7,79.9z"/>
		</g>
		<g class="st1">
			<path class="st0" d="M306.3,72.3c-0.1,0.1-0.2,0.1-0.5,0.1s-0.4,0-0.5-0.1s-0.1-0.3-0.1-0.5s0-0.4,0.1-0.5s0.2-0.2,0.4-0.2
				c0.2,0,0.4,0.1,0.5,0.2s0.1,0.3,0.1,0.5C306.4,72,306.4,72.2,306.3,72.3z M305.4,80.8v-6.9h0.9v6.9H305.4z"/>
			<path class="st0" d="M311.2,80.9c-0.6,0-1-0.1-1.4-0.2s-0.7-0.3-0.9-0.6c-0.2-0.3-0.4-0.7-0.5-1.1s-0.2-1-0.2-1.7
				s0.1-1.2,0.2-1.7s0.3-0.8,0.5-1.1c0.2-0.3,0.6-0.5,0.9-0.6c0.4-0.1,0.9-0.2,1.4-0.2s1,0.1,1.4,0.2s0.7,0.3,0.9,0.6
				c0.2,0.3,0.4,0.7,0.5,1.1s0.2,1,0.2,1.6s-0.1,1.2-0.2,1.6s-0.3,0.8-0.5,1.1c-0.2,0.3-0.6,0.5-0.9,0.6
				C312.2,80.8,311.7,80.9,311.2,80.9z M311.2,80.1c0.5,0,1-0.1,1.3-0.3c0.3-0.2,0.5-0.5,0.6-0.8c0.1-0.4,0.2-0.9,0.2-1.7
				c0-0.4,0-0.8-0.1-1.1c0-0.3-0.1-0.6-0.2-0.8c-0.1-0.2-0.2-0.4-0.4-0.5s-0.4-0.2-0.6-0.3s-0.5-0.1-0.8-0.1s-0.6,0-0.8,0.1
				c-0.2,0.1-0.4,0.1-0.6,0.3c-0.2,0.1-0.3,0.3-0.4,0.5s-0.2,0.5-0.2,0.8s-0.1,0.7-0.1,1.1s0,0.8,0.1,1.1c0,0.3,0.1,0.6,0.2,0.8
				c0.1,0.2,0.2,0.4,0.4,0.5c0.2,0.1,0.4,0.2,0.6,0.3S310.8,80.1,311.2,80.1z"/>
			<path class="st0" d="M317,76v4.8h-1v-5.3c0-0.4,0-0.8,0-1.2c0.4-0.2,0.9-0.3,1.4-0.4s1.1-0.2,1.7-0.2c0.3,0,0.6,0,0.9,0.1
				c0.3,0,0.5,0.1,0.7,0.2s0.3,0.2,0.5,0.3s0.2,0.3,0.3,0.4c0.1,0.1,0.1,0.3,0.2,0.5s0.1,0.4,0.1,0.5c0,0.2,0,0.4,0,0.6v4.5h-0.9
				v-4.3c0-0.2,0-0.4,0-0.5s0-0.3-0.1-0.4c0-0.1-0.1-0.3-0.1-0.4c-0.1-0.1-0.1-0.2-0.2-0.3s-0.2-0.1-0.4-0.2c-0.1,0-0.3-0.1-0.5-0.1
				s-0.4,0-0.7,0c-0.3,0-0.6,0-1,0.1s-0.7,0.1-0.9,0.2C317,75.2,317,75.6,317,76z"/>
		</g>
		<g class="st1">
			<path class="st0" d="M323.9,74.7l-0.1-0.7c1-0.2,1.9-0.2,2.6-0.2c0.3,0,0.6,0,0.8,0.1s0.5,0.1,0.7,0.2s0.4,0.2,0.6,0.4
				s0.3,0.4,0.4,0.6c0.1,0.3,0.1,0.5,0.1,0.9v3.3c0,0.4,0,0.8,0,1.2c-0.8,0.4-1.7,0.6-2.9,0.6c-0.9,0-1.6-0.2-2.1-0.5
				c-0.4-0.3-0.6-0.9-0.6-1.6c0-0.6,0.1-1.1,0.4-1.5s0.7-0.6,1.3-0.7c0.6-0.1,1.6-0.2,3-0.2v-0.3c0-0.3,0-0.5-0.1-0.7
				s-0.2-0.4-0.3-0.5c-0.1-0.1-0.3-0.2-0.6-0.3c-0.2-0.1-0.6-0.1-0.9-0.1C325.6,74.5,324.9,74.6,323.9,74.7z M324.4,78.8
				c0,0.2,0,0.4,0.1,0.5c0,0.2,0.1,0.3,0.2,0.4s0.2,0.2,0.4,0.2c0.2,0.1,0.3,0.1,0.5,0.1s0.4,0,0.7,0c0.7,0,1.3-0.1,1.9-0.3
				c0-0.3,0-0.7,0-1.1v-1.5c-1.3,0-2.1,0.1-2.6,0.2c-0.2,0-0.4,0.1-0.5,0.2s-0.3,0.1-0.4,0.3c-0.1,0.1-0.2,0.2-0.2,0.4
				S324.4,78.5,324.4,78.8z"/>
		</g>
		<g class="st1">
			<path class="st0" d="M331,79v-7.8h0.9V79c0,0.4,0,0.7,0.1,1s0.2,0.5,0.4,0.8l-0.8,0.4c-0.2-0.3-0.4-0.6-0.5-0.9
				C331.1,79.9,331,79.5,331,79z"/>
		</g>
	</g>
</g>
</svg>
