<?xml version="1.0" encoding="utf-8"?>
<!-- Generator: Adobe Illustrator 16.0.3, SVG Export Plug-In . SVG Version: 6.00 Build 0)  -->
<!DOCTYPE svg PUBLIC "-//W3C//DTD SVG 1.1//EN" "http://www.w3.org/Graphics/SVG/1.1/DTD/svg11.dtd">
<svg version="1.1" id="Capa_1" xmlns="http://www.w3.org/2000/svg" xmlns:xlink="http://www.w3.org/1999/xlink" x="0px" y="0px"
	 width="529.021px" height="228.766px" viewBox="0 0 529.021 228.766" enable-background="new 0 0 529.021 228.766"
	 xml:space="preserve">
<path display="none" fill="#28302D" d="M617,287.766c0,6.627-5.373,12-12,12H-55c-6.627,0-12-5.373-12-12v-307
	c0-6.627,5.373-12,12-12h660c6.627,0,12,5.373,12,12V287.766z"/>
<rect x="40.855" y="31.011" fill="#FFFFFF" width="43.526" height="166.744"/>
<g>
	<defs>
		<rect id="SVGID_1_" width="529.021" height="228.766"/>
	</defs>
	<clipPath id="SVGID_2_">
		<use xlink:href="#SVGID_1_"  overflow="visible"/>
	</clipPath>
	<path clip-path="url(#SVGID_2_)" fill="#FFFFFF" d="M447.882,31.011H318.58c-22.248,0-40.284,18.036-40.284,40.284
		c0,22.249,18.036,40.285,40.284,40.285h129.302c22.249,0,40.285-18.036,40.285-40.285
		C488.167,49.047,470.131,31.011,447.882,31.011 M314.346,80.953c1.499,2.742,3.576,4.89,6.23,6.448
		c2.653,1.558,5.596,2.336,8.827,2.336c3.058,0,6.547-0.98,10.472-2.942V71.131h13.674v24.146c-3.232,2.366-7.198,4.283-11.9,5.754
		c-4.703,1.471-9.159,2.206-13.37,2.206c-6.116,0-11.64-1.369-16.572-4.11c-4.934-2.739-8.813-6.504-11.64-11.293
		c-2.828-4.788-4.241-10.154-4.241-16.097c0-5.884,1.457-11.207,4.37-15.967c2.913-4.759,6.924-8.494,12.03-11.206
		c5.105-2.712,10.802-4.068,17.091-4.068c4.5,0,9.001,0.822,13.501,2.466c4.5,1.645,8.308,3.852,11.423,6.62l-9,11.078
		c-2.192-2.077-4.717-3.721-7.572-4.933c-2.856-1.211-5.668-1.818-8.438-1.818c-3.231,0-6.145,0.78-8.741,2.337
		c-2.596,1.558-4.645,3.694-6.144,6.405c-1.501,2.711-2.25,5.741-2.25,9.086C312.096,75.142,312.845,78.214,314.346,80.953
		 M408.155,91.252c-2.136,3.607-5.136,6.403-9.001,8.395c-3.865,1.99-8.337,2.985-13.413,2.985c-5.077,0-9.55-0.995-13.414-2.985
		c-3.865-1.992-6.852-4.788-8.956-8.395c-2.107-3.605-3.159-7.803-3.159-12.592c0-4.729,1.052-8.898,3.159-12.505
		c2.104-3.605,5.091-6.404,8.956-8.394c3.864-1.991,8.337-2.986,13.414-2.986c5.076,0,9.548,0.995,13.413,2.986
		c3.865,1.99,6.865,4.789,9.001,8.394c2.134,3.607,3.201,7.776,3.201,12.505C411.356,83.449,410.289,87.647,408.155,91.252
		 M467.997,91.382c-1.761,3.578-4.271,6.347-7.529,8.308c-3.26,1.962-7.025,2.942-11.293,2.942c-2.943,0-5.612-0.562-8.006-1.687
		c-2.395-1.125-4.429-2.755-6.102-4.89v6.057h-15.403V37.9h15.403v23.452c3.404-4.384,7.991-6.577,13.76-6.577
		c4.327,0,8.136,0.995,11.425,2.986c3.288,1.99,5.841,4.817,7.658,8.48c1.817,3.665,2.727,7.891,2.727,12.679
		C470.637,83.652,469.756,87.805,467.997,91.382"/>
	<path clip-path="url(#SVGID_2_)" fill="#FFFFFF" d="M385.741,67.237c-3,0-5.424,1.068-7.271,3.202
		c-1.847,2.136-2.769,4.934-2.769,8.395c0,3.519,0.922,6.347,2.769,8.481c1.847,2.135,4.271,3.202,7.271,3.202
		c3.057,0,5.509-1.067,7.356-3.202c1.846-2.134,2.769-4.962,2.769-8.481c0-3.461-0.938-6.259-2.813-8.395
		C391.178,68.305,388.74,67.237,385.741,67.237"/>
	<path clip-path="url(#SVGID_2_)" fill="#FFFFFF" d="M445.02,66.891c-2.941,0-5.337,1.082-7.183,3.245
		c-1.847,2.164-2.769,4.977-2.769,8.438c0,3.462,0.922,6.26,2.769,8.394c1.846,2.136,4.241,3.202,7.183,3.202
		c3,0,5.438-1.066,7.313-3.202c1.874-2.134,2.812-4.932,2.812-8.394c0-3.461-0.938-6.274-2.812-8.438
		C450.457,67.973,448.02,66.891,445.02,66.891"/>
	<path clip-path="url(#SVGID_2_)" fill="#FFFFFF" d="M309.33,163.227c1.494,1.495,2.242,3.427,2.242,5.794
		c0,2.368-0.748,4.314-2.242,5.84c-1.495,1.527-3.428,2.289-5.794,2.289c-2.306,0-4.204-0.762-5.699-2.289
		c-1.495-1.525-2.243-3.472-2.243-5.84c0-2.367,0.731-4.299,2.196-5.794c1.463-1.495,3.379-2.242,5.746-2.242
		C305.902,160.985,307.835,161.732,309.33,163.227"/>
	<path clip-path="url(#SVGID_2_)" fill="#FFFFFF" d="M365.675,128.514c3.551,2.148,6.308,5.201,8.27,9.157
		c1.963,3.956,2.943,8.519,2.943,13.688c0,5.108-0.951,9.594-2.85,13.456c-1.901,3.863-4.611,6.854-8.13,8.971
		c-3.52,2.118-7.584,3.177-12.194,3.177c-3.177,0-6.059-0.607-8.643-1.822c-2.586-1.215-4.782-2.974-6.588-5.278v24.668h-16.633
		v-68.68h16.633v6.54c3.675-4.733,8.627-7.102,14.856-7.102C358.013,125.29,362.124,126.365,365.675,128.514 M357.125,160.05
		c2.023-2.304,3.037-5.326,3.037-9.064c0-3.737-1.014-6.773-3.037-9.11c-2.025-2.336-4.658-3.504-7.896-3.504
		c-3.177,0-5.763,1.168-7.756,3.504c-1.994,2.337-2.989,5.373-2.989,9.11c0,3.738,0.995,6.761,2.989,9.064
		c1.993,2.306,4.579,3.457,7.756,3.457C352.467,163.507,355.1,162.356,357.125,160.05"/>
	<path clip-path="url(#SVGID_2_)" fill="#FFFFFF" d="M426.691,132.579c4.423,4.858,6.635,11.525,6.635,19.996
		c0,1.309-0.033,2.306-0.094,2.99h-35.134c0.809,2.866,2.21,5.063,4.204,6.588c1.993,1.527,4.423,2.289,7.288,2.289
		c2.181,0,4.282-0.435,6.309-1.308c2.022-0.872,3.877-2.149,5.559-3.831l8.69,8.689c-2.616,2.929-5.779,5.155-9.484,6.682
		c-3.707,1.526-7.896,2.289-12.568,2.289c-5.419,0-10.153-1.059-14.202-3.177c-4.051-2.117-7.148-5.107-9.298-8.971
		c-2.149-3.862-3.224-8.348-3.224-13.456c0-5.17,1.089-9.732,3.271-13.688c2.18-3.956,5.264-7.009,9.251-9.157
		c3.985-2.149,8.597-3.225,13.829-3.225C415.945,125.29,422.268,127.719,426.691,132.579 M417.16,146.688
		c0-2.927-0.857-5.279-2.57-7.055c-1.714-1.775-3.971-2.663-6.773-2.663c-2.616,0-4.813,0.873-6.588,2.616
		c-1.776,1.745-2.943,4.111-3.504,7.102H417.16z"/>
	<path clip-path="url(#SVGID_2_)" fill="#FFFFFF" d="M170.986,31.61h-66.07v165.94h66.07c51.91,0,93.99-37.15,93.99-82.969
		C264.976,68.76,222.896,31.61,170.986,31.61 M173.805,75.326c11.118,0,20.206,9.088,20.206,20.206
		c0,11.117-9.088,20.205-20.206,20.205c-11.117,0-20.206-9.088-20.206-20.205C153.599,84.414,162.688,75.326,173.805,75.326
		 M208.217,133.56c-0.706,1.235-1.5,2.383-2.382,3.529c-1.236,1.677-2.647,3.177-4.059,4.589c-1.236,1.234-2.647,2.471-4.059,3.528
		c-6.971,5.206-15.353,7.941-24,7.941c-8.646,0-17.029-2.734-24-7.941c-1.411-1.146-2.823-2.294-4.058-3.528
		c-1.5-1.412-2.824-2.912-4.059-4.589c-0.794-1.059-1.676-2.294-2.383-3.529c-0.264-0.529-0.352-1.146-0.087-1.677
		c0.529-1.234,1.234-2.559,2.029-3.705c3.97-6,10.323-9.972,17.382-10.941c0.882-0.177,1.853,0.088,2.559,0.617
		c3.705,2.735,8.117,4.147,12.705,4.147c4.589,0,9-1.412,12.706-4.147c0.706-0.529,1.677-0.705,2.559-0.617
		c7.059,0.97,13.323,4.941,17.382,10.941c0.794,1.146,1.5,2.382,2.029,3.705C208.746,132.413,208.658,133.031,208.217,133.56"/>
</g>
</svg>
