<?xml version="1.0" encoding="utf-8"?>
<!-- Generator: Adobe Illustrator 24.0.0, SVG Export Plug-In . SVG Version: 6.00 Build 0)  -->
<svg version="1.1" id="Capa_1" xmlns="http://www.w3.org/2000/svg" xmlns:xlink="http://www.w3.org/1999/xlink" x="0px" y="0px"
	 viewBox="0 0 169 44" style="enable-background:new 0 0 169 44;" xml:space="preserve">
<style type="text/css">
	.st0{fill:#BF0908;}
</style>
<path class="st0" d="M30.52,29.19c-0.53-0.55-1.18-0.81-1.8-0.68c-0.63,0.11-1.18,0.59-1.44,1.21c-0.06,0.13-0.02,0.29,0.11,0.37
	c0.13,0.09,0.28,0.07,0.39-0.02c0.28-0.24,0.53-0.35,0.75-0.29c0.18,0.05,0.35,0.24,0.44,0.51c0.07,0.24,0.04,0.59-0.11,0.81
	c-0.06,0.07-0.17,0.2-0.29,0.22c-0.46,0.05-1.16-0.53-1.9-1.14c-0.72-0.6-1.55-1.28-2.47-1.65c-1.25-0.51-4.68-1.26-7.09,0.55
	c-0.02,0-0.02,0.02-0.04,0.02c-0.06,0.04-1.44,1.1-1.75,2.22c-0.5,1.04-0.57,2.03-0.2,2.91c-0.29,0.24-0.46,0.53-0.46,0.86
	c0,0.71,0.81,1.28,1.88,1.35c-0.11,0.16-0.17,0.35-0.17,0.55c0,0.75,0.9,1.35,2.06,1.35c0.85,0,1.55-0.31,1.88-0.79
	c0.33,0.46,1.03,0.79,1.88,0.79c1.16,0,2.06-0.59,2.06-1.35c0-0.2-0.06-0.38-0.17-0.55c0.68-0.04,1.27-0.29,1.6-0.68
	c0.06,0,0.11-0.04,0.15-0.07c0.24-0.2,0.7-0.33,1.1-0.42c0.13-0.02,0.2-0.02,0.2-0.02h0.02c0.07,0,1.77-0.18,2.72-1.26
	C31.09,32.67,31.61,30.32,30.52,29.19z M16.37,33.42c0.04-0.29,0.18-0.57,0.42-0.82c-0.15,0.18-0.24,0.4-0.24,0.64
	c0,0.2,0.06,0.38,0.17,0.55c-0.11,0-0.22,0.02-0.35,0.02C16.37,33.65,16.35,33.53,16.37,33.42z M15.32,35.12
	c0-0.16,0.15-0.35,0.39-0.48c0.18-0.09,0.41-0.16,0.64-0.22c0.13-0.02,0.28-0.04,0.4-0.04c0.85,0,1.44,0.38,1.44,0.73
	c0,0.18-0.18,0.35-0.28,0.42c-0.28,0.2-0.7,0.31-1.16,0.31C15.91,35.83,15.32,35.47,15.32,35.12z M20.42,32.54
	c-0.35-0.4-1.01-0.68-1.79-0.68c-0.26,0-0.52,0.04-0.75,0.09c0.75-0.26,1.71-0.33,2.71-0.18c0.29,0.04,0.61,0.11,0.9,0.18
	C21.02,32.06,20.66,32.26,20.42,32.54z M22.2,32.5c0.15,0,0.33,0.02,0.48,0.04c0.57,0.09,1.07,0.38,1.07,0.68v0.02
	c0,0.24-0.33,0.48-0.75,0.62c-0.22,0.07-0.5,0.11-0.77,0.11c-0.85,0-1.45-0.38-1.45-0.73C20.77,32.89,21.36,32.5,22.2,32.5z
	 M18.63,32.5c0.83,0,1.44,0.38,1.44,0.73c0,0.18-0.17,0.38-0.46,0.51c-0.07,0.04-0.17,0.07-0.24,0.09
	c-0.22,0.07-0.48,0.11-0.74,0.11c-0.83,0-1.44-0.38-1.44-0.73C17.18,32.89,17.78,32.5,18.63,32.5z M18.45,37.74
	c-0.85,0-1.44-0.44-1.44-0.77c0-0.35,0.61-0.77,1.44-0.77h0.02l0.02,0.06l0.02,0.02c0.42,0,0.81,0.13,1.09,0.31
	c0.11,0.07,0.29,0.24,0.29,0.44C19.88,37.35,19.29,37.74,18.45,37.74z M20.32,35.83c-0.85,0-1.44-0.38-1.44-0.73
	c0-0.24,0.28-0.48,0.68-0.6c0.07-0.02,0.17-0.06,0.26-0.07c0.17-0.04,0.33-0.05,0.5-0.05c0.85,0,1.44,0.38,1.44,0.73
	C21.76,35.47,21.17,35.83,20.32,35.83z M22.2,37.74c-0.85,0-1.44-0.38-1.44-0.73c0-0.11,0.06-0.22,0.18-0.33c0,0,0,0,0.02-0.02
	c0.26-0.24,0.74-0.38,1.25-0.38c0.26,0,0.52,0.04,0.74,0.11c0.42,0.13,0.7,0.38,0.7,0.62C23.64,37.35,23.05,37.74,22.2,37.74z
	 M25.28,35.32c-0.17,0.26-0.66,0.53-1.38,0.53c-0.24,0-0.46-0.04-0.68-0.09c-0.46-0.13-0.75-0.38-0.75-0.64
	c0-0.24,0.28-0.48,0.7-0.62c0.22-0.07,0.48-0.11,0.74-0.11c0.17,0,0.33,0.02,0.48,0.05c0.55,0.11,0.96,0.38,0.96,0.68
	C25.33,35.17,25.31,35.25,25.28,35.32z M24.1,33.76c0-0.02,0.02-0.02,0.02-0.04c0,0.02,0.02,0.02,0.02,0.04
	C24.12,33.76,24.12,33.76,24.1,33.76z M26.62,34.72c-0.06,0-0.11,0.04-0.15,0.07c-0.13,0.04-0.28,0.07-0.39,0.13
	c-0.06-0.2-0.28-0.6-0.57-1.26c-0.46-1.03-1.47-2.4-3.7-3.08c-2.96-0.9-4.53-0.46-5.28-0.04c0.06-0.05,0.09-0.11,0.15-0.16
	c0.04-0.02,0.07-0.04,0.11-0.07c0.22-0.26,0.46-0.48,0.72-0.68c1.03-0.37,2.6-0.53,4.88,0.16c3.04,0.92,3.94,3.11,4.2,4.01
	c0.09,0.31,0.15,0.64,0.15,0.93C26.66,34.7,26.64,34.72,26.62,34.72z M28.66,34.2c-0.29,0.16-0.61,0.26-0.87,0.33
	c-0.02,0-0.02,0-0.04,0c0.18-1.48-0.64-2.93-1.01-3.46c0.52,0.4,0.99,0.73,1.45,0.84C28.48,32.39,28.77,33.16,28.66,34.2z"/>
<path class="st0" d="M21.8,7.38c3.22-0.04,5.76-1.65,5.76-3.68c0-2.05-2.54-3.66-5.76-3.7c-3.24,0.04-5.76,1.65-5.76,3.68
	C16.05,5.73,18.56,7.34,21.8,7.38z M21.8,1.41c1.68,0,2.85,0.64,2.85,1.5c0,0.6-0.66,1.15-1.71,1.39c-0.98,0.31-0.61,0.64-1.12,0.97
	L21.8,5.26c-0.52-0.37-0.13-0.66-1.12-0.97c-1.03-0.24-1.71-0.77-1.71-1.37C18.96,2.05,20.18,1.41,21.8,1.41z"/>
<path class="st0" d="M44,27.81V10.69c0-0.2-0.13-0.38-0.29-0.48c-0.17-0.09-0.35-0.09-0.52,0l-1.77,1.01V5.2
	c0-0.2-0.15-0.38-0.33-0.48c-0.18-0.09-0.41-0.09-0.59,0.02l-8.43,5.31c-0.07-0.02-0.17,0-0.24,0.02c-1.45,0.46-2.84,0.68-4.05,0.68
	c-2.04,0-3.39-0.62-4.23-1.26c-0.85-0.64-1.2-1.23-1.22-1.28c-0.09-0.18-0.28-0.22-0.46-0.22c-0.2,0-0.39,0.05-0.46,0.22
	c-0.06,0.11-1.38,2.58-5.45,2.58c-1.23,0-2.6-0.26-4.05-0.71c-0.04-0.02-0.07-0.02-0.11-0.04L3.31,4.74
	C3.15,4.63,3.07,4.63,2.89,4.72C2.71,4.82,2.74,5,2.74,5.2v6.02l-1.91-1.01c-0.17-0.09-0.39-0.09-0.55,0C0.11,10.33,0,10.51,0,10.69
	v17.1c0,0.26-0.09,4.34,3.33,7.82c3.06,3.11,7.79,4.69,14.14,4.69c0.06,0,0.09,0,0.13-0.02c2.41,0.7,3.76,1.28,3.76,3.2
	c0,0.29,0.22,0.51,0.52,0.51c0.29,0,0.52-0.24,0.52-0.51c0-1.94,1.36-2.53,3.81-3.22c0.06,0.02,0.13,0.04,0.2,0.04
	c6.35,0,11.14-1.57,14.19-4.69C44,32.15,44,28.05,44,27.81z M40.24,12.12v6.59l-6.02,3.15c0,0-0.92-2.44,1.9-7.1
	C37.81,13.7,40.24,12.12,40.24,12.12z M34.98,26.6c-0.04,0.04-0.06,0.05-0.09,0.09c-0.02-0.04-0.02-0.05-0.04-0.09
	C34.91,26.6,34.94,26.6,34.98,26.6z M22.46,9.74c0.92,0.92,2.52,2.07,5.43,2.07c1.23,0,2.5-0.2,3.92-0.62
	c1.53,2.42,2.32,3.5,2.74,3.97c-0.75,1.19-2.8,5.05-1.27,10.11c-0.79-0.68-2.26-0.84-4.05-0.92C29,23.25,29,22.27,29.07,21.9h2.65
	c0.29,0,0.29-0.64,0.29-1.03v-2.44c0-1.87-1.05-1.98-1.05-1.98s-0.66-0.09-0.99-0.97c-0.31-0.88-0.85-1.57-1.64-1.67
	c-0.77-0.09-2.03,0.53-3,1.06c-0.59,0.33-0.64,0.77-0.72,1.39c-0.2,1.54-0.68,1.46-0.68,1.46c-0.29,0-0.41,0.31-0.41,0.7v2.44
	c0,0.38,0,1.03,0.28,1.03h2.49c0.07,0.37,0.17,1.34-0.11,2.47c-1.77,0.09-3.04,0.29-3.77,1.03V9.74H22.46z M27.01,21.9h1.4
	c-0.07,0.37-0.07,1.39,0.15,2.44c-0.02,0-0.04-0.04-0.06-0.04l-1.64-0.07C27.06,23.22,27.06,22.27,27.01,21.9z M11.95,11.19
	c1.42,0.42,2.84,0.62,4.05,0.62c2.49,0,4.25-0.84,5.17-1.67V25.1c-0.74-0.48-1.95-0.7-3.33-0.79c-0.15-0.75-0.18-2.51,0.02-3.02
	c1.12-0.26,1.16-1.39,1.22-2.36c0.04-0.71-0.24-3.22-0.24-3.22c0.11-0.07,0.61-0.2,0.68-0.24c0.15-0.02,0.29-0.09,0.35-0.24
	c0.04-0.18,0.11-0.46,0.04-0.55c-0.09-0.11-0.63-0.16-0.74-0.35c-0.26-0.27-0.52-0.46-0.77-0.42c-0.33,0.02-0.68,0.02-0.88,0.38
	c-0.31-0.22-0.63,0.07-0.98-0.02c0,0-0.09,1.15,1.16,1.04l0.13,3.08c0,0,0.09,0.62-0.79,0.46c-0.66-0.13-2.25-0.73-3-0.51
	c-0.57,0.16-1.2,0.46-1.55,1.65c-0.37,1.19,0.24,0.79,0.24,0.79l0.63-0.42c0,0,0.44,1.04-0.07,1.63c-0.4,0.48-0.24,0.82-0.24,0.82
	s0.18,1.08,0.15,1.61c-1.16,0.11-2.1,0.35-2.71,0.81c1.49-5.02-0.53-8.84-1.29-10.02C9.59,14.68,10.42,13.6,11.95,11.19z
	 M13.84,22.78c0.74-0.26,0.99-1.65,0.99-1.65s1.09,0.71,1.91,0.35c0,0.33-0.11,0.88-0.11,0.88s-0.13,0.4,0.11,0.86
	c0.13,0.22,0.2,0.75,0.24,1.08c-0.39-0.02-0.81-0.02-1.23-0.02c-0.68,0-1.34,0.02-1.97,0.06C13.83,23.71,13.86,23.4,13.84,22.78z
	 M3.57,12.12c0,0,2.43,1.57,4.12,2.64c2.82,4.69,1.9,7.1,1.9,7.1l-6.02-3.15V12.12z M7.79,33.22C4,31.07,1.33,29.53,1.33,29.53
	l-0.15-6.85l7.25,4.1C8.43,26.81,6.81,29.99,7.79,33.22z M8.86,26.62C8.86,26.62,8.84,26.6,8.86,26.62
	C8.84,26.6,8.86,26.6,8.86,26.62C8.86,26.6,8.86,26.62,8.86,26.62z M30.98,37.12c-1.36,1.04-3.04,1.56-4.66,2.01
	c-1.84,0.51-3.63,1.03-4.47,2.36c-0.85-1.34-2.63-1.83-4.47-2.34c-1.62-0.46-3.3-0.99-4.66-2.03c-3.5-2.67-4.79-4.78-2.89-10.27
	h24.04C35.79,32.34,34.5,34.44,30.98,37.12z M41.97,29.53c0,0-2.69,1.52-6.46,3.68c0.98-3.22-0.64-6.43-0.64-6.43l7.25-4.1
	L41.97,29.53z"/>
<path class="st0" d="M72.01,16.16c-1.22-1.66-3.49-2.45-5.4-2.45c-4.32,0-8.24,3.42-8.24,8.82s3.92,8.86,8.24,8.86
	c1.87,0,4.18-0.83,5.4-2.48v0.47c0,4.36-1.91,6.05-4.93,6.05c-1.8,0-3.53-1.08-4.25-2.63l-3.92,1.69c1.44,3.13,4.57,5.15,8.17,5.15
	c5.94,0,9.65-3.42,9.65-10.76V14.14h-4.72V16.16z M67.51,27c-2.38,0-4.36-2.02-4.36-4.46c0-2.48,1.98-4.43,4.36-4.43
	c2.2,0,4.36,1.84,4.36,4.43C71.87,25.09,69.82,27,67.51,27z"/>
<path class="st0" d="M88.76,31.39c4.79,0,9.04-3.53,9.04-8.82c0-5.33-4.25-8.86-9.04-8.86s-9.04,3.53-9.04,8.86
	C79.73,27.86,83.97,31.39,88.76,31.39z M88.76,27c-2.34,0-4.25-1.84-4.25-4.43c0-2.63,1.91-4.46,4.25-4.46s4.25,1.84,4.25,4.46
	C93.01,25.16,91.1,27,88.76,27z"/>
<path class="st0" d="M110.91,13.71c-1.91,0-4.21,0.76-5.4,2.45V5h-4.72v25.96h4.72v-2.09c1.19,1.73,3.49,2.52,5.4,2.52
	c4.32,0,8.24-3.46,8.24-8.86S115.23,13.71,110.91,13.71z M110.01,27c-2.3,0-4.36-1.91-4.36-4.46c0-2.59,2.16-4.43,4.36-4.43
	c2.38,0,4.32,1.94,4.32,4.43C114.33,24.98,112.38,27,110.01,27z"/>
<path class="st0" d="M124.35,31.28c1.66,0,3.06-1.22,3.06-2.92c0-1.66-1.4-2.88-3.06-2.88c-1.62,0-2.99,1.22-2.99,2.88
	C121.36,30.06,122.73,31.28,124.35,31.28z"/>
<path class="st0" d="M140.9,13.71c-1.91,0-4.21,0.79-5.4,2.48v-2.05h-4.72V39.2h4.72V28.87c1.19,1.73,3.49,2.52,5.4,2.52
	c4.32,0,8.24-3.42,8.24-8.86C149.14,17.17,145.22,13.71,140.9,13.71z M140,27c-2.2,0-4.36-1.87-4.36-4.43s2.05-4.46,4.36-4.46
	c2.38,0,4.32,1.98,4.32,4.46S142.37,27,140,27z"/>
<path class="st0" d="M168.84,22.28c0-5.15-3.92-8.57-8.75-8.57c-4.79,0-8.93,3.42-8.93,8.86c0,5.18,3.78,8.82,8.96,8.82
	c2.95,0,5.87-1.26,7.45-3.38l-2.74-2.77c-1.04,1.19-2.7,1.98-4.43,1.98c-2.23,0-3.82-1.15-4.32-3.13h12.64
	C168.81,23.32,168.84,22.75,168.84,22.28z M156.1,21.02c0.5-2.27,2.16-3.24,4.1-3.24c2.12,0,3.74,1.26,3.89,3.24H156.1z"/>
</svg>
