<?xml version="1.0" encoding="utf-8"?>
<!-- Generator: Adobe Illustrator 16.0.3, SVG Export Plug-In . SVG Version: 6.00 Build 0)  -->
<!DOCTYPE svg PUBLIC "-//W3C//DTD SVG 1.1//EN" "http://www.w3.org/Graphics/SVG/1.1/DTD/svg11.dtd">
<svg version="1.1" id="Capa_1" xmlns="http://www.w3.org/2000/svg" xmlns:xlink="http://www.w3.org/1999/xlink" x="0px" y="0px"
	 width="589.787px" height="340.085px" viewBox="0 0 589.787 340.085" enable-background="new 0 0 589.787 340.085"
	 xml:space="preserve">
<g>
	<defs>
		<rect id="SVGID_1_" width="589.787" height="340.085"/>
	</defs>
	<clipPath id="SVGID_2_">
		<use xlink:href="#SVGID_1_"  overflow="visible"/>
	</clipPath>
	<path clip-path="url(#SVGID_2_)" fill="#FFFFFF" d="M291.94,199.946v-48.752c0-5.207,4.22-9.428,9.427-9.428h67.403
		c5.206,0,9.427,4.221,9.427,9.428v29.589l-28.59,28.59h-48.239C296.161,209.373,291.94,205.151,291.94,199.946"/>
	<path clip-path="url(#SVGID_2_)" fill="none" stroke="#000000" stroke-width="5" stroke-miterlimit="10" d="M291.94,199.946
		v-48.752c0-5.207,4.22-9.428,9.427-9.428h67.403c5.206,0,9.427,4.221,9.427,9.428v29.589l-28.59,28.59h-48.239
		C296.161,209.373,291.94,205.151,291.94,199.946z"/>
	<path clip-path="url(#SVGID_2_)" fill="#D6E4E5" d="M285.958,288.532H38.554c-8.461,0-15.32-6.859-15.32-15.319V68.702
		c0-8.461,6.859-15.319,15.32-15.319h247.404c8.461,0,15.319,6.858,15.319,15.319v204.511
		C301.276,281.673,294.419,288.532,285.958,288.532"/>
	<path clip-path="url(#SVGID_2_)" fill="none" stroke="#000000" stroke-width="0.25" stroke-miterlimit="10" d="M285.958,288.532
		H38.554c-8.461,0-15.32-6.859-15.32-15.319V68.702c0-8.461,6.859-15.319,15.32-15.319h247.404c8.461,0,15.319,6.858,15.319,15.319
		v204.511C301.276,281.673,294.419,288.532,285.958,288.532z"/>
	<path clip-path="url(#SVGID_2_)" fill="#BF0909" d="M264.387,107.83H156.485c-1.815,0-3.285-1.471-3.285-3.285V88.039
		c0-1.814,1.47-3.285,3.285-3.285h107.902c1.814,0,3.285,1.471,3.285,3.285v16.506C267.672,106.358,266.201,107.83,264.387,107.83"
		/>
	<path clip-path="url(#SVGID_2_)" fill="#CDD0D3" d="M306.515,244.191H198.613c-1.815,0-3.286-1.471-3.286-3.285V224.4
		c0-1.814,1.471-3.285,3.286-3.285h107.901c1.813,0,3.284,1.471,3.284,3.285v16.506
		C309.799,242.721,308.328,244.191,306.515,244.191"/>
	<path clip-path="url(#SVGID_2_)" fill="#CDD0D3" d="M265.103,186.787H154.978c-1.2,0-2.173-0.973-2.173-2.173v-5.751
		c0-1.2,0.973-2.173,2.173-2.173h110.125c1.2,0,2.174,0.973,2.174,2.173v5.751C267.277,185.814,266.303,186.787,265.103,186.787"/>
	<path clip-path="url(#SVGID_2_)" fill="#CDD0D3" d="M265.363,142.361H155.237c-1.2,0-2.173-0.973-2.173-2.173v-5.751
		c0-1.2,0.973-2.173,2.173-2.173h110.126c1.2,0,2.173,0.973,2.173,2.173v5.751C267.536,141.388,266.563,142.361,265.363,142.361"/>
	<path clip-path="url(#SVGID_2_)" fill="#CDD0D3" d="M265.363,164.574H155.237c-1.2,0-2.173-0.973-2.173-2.173v-5.751
		c0-1.2,0.973-2.173,2.173-2.173h110.126c1.2,0,2.173,0.973,2.173,2.173v5.751C267.536,163.601,266.563,164.574,265.363,164.574"/>
	<polygon clip-path="url(#SVGID_2_)" fill="#FFFFFF" points="464.557,196.483 500.078,167.569 464.557,138.657 	"/>
	<polygon clip-path="url(#SVGID_2_)" fill="none" stroke="#000000" stroke-width="4" stroke-miterlimit="10" points="
		464.557,196.483 500.078,167.569 464.557,138.657 	"/>
	<path clip-path="url(#SVGID_2_)" fill="#EDEFF4" d="M284.378,326.285c-15.125,0-27.387-7.761-27.387-17.333V31.623
		c0-9.572,12.262-17.334,27.387-17.334h233.552c15.126,0,27.387,7.762,27.387,17.334v277.329c0,9.572-12.261,17.333-27.387,17.333
		H284.378z"/>
	<path clip-path="url(#SVGID_2_)" fill="none" stroke="#353434" stroke-width="0.25" stroke-miterlimit="10" d="M284.378,326.285
		c-15.125,0-27.387-7.761-27.387-17.333V31.623c0-9.572,12.262-17.334,27.387-17.334h233.552c15.126,0,27.387,7.762,27.387,17.334
		v277.329c0,9.572-12.261,17.333-27.387,17.333H284.378z"/>
	<path clip-path="url(#SVGID_2_)" fill="#EDEFF4" d="M287.686,322.724c-14.68,0-26.58-7.583-26.58-16.937V34.809
		c0-9.353,11.9-16.937,26.58-16.937h226.669c14.681,0,26.581,7.584,26.581,16.937v270.979c0,9.354-11.9,16.937-26.581,16.937
		H287.686z"/>
	<path clip-path="url(#SVGID_2_)" fill="none" stroke="#353434" stroke-width="0.243" stroke-miterlimit="10" d="M287.686,322.724
		c-14.68,0-26.58-7.583-26.58-16.937V34.809c0-9.353,11.9-16.937,26.58-16.937h226.669c14.681,0,26.581,7.584,26.581,16.937v270.979
		c0,9.354-11.9,16.937-26.581,16.937H287.686z"/>
	<polygon clip-path="url(#SVGID_2_)" fill="#EDEFF4" points="696.385,211.336 696.385,155.238 723.384,158.276 723.212,208.071 	"/>
	<polygon clip-path="url(#SVGID_2_)" fill="none" stroke="#353434" stroke-width="0.25" stroke-miterlimit="10" points="
		699.385,200.336 699.385,144.238 726.384,147.276 726.212,197.071 	"/>
	<path clip-path="url(#SVGID_2_)" fill="#FDB10B" d="M313.934,194.664v-48.753c0-5.206,4.219-9.427,9.426-9.427h67.404
		c5.204,0,9.426,4.221,9.426,9.427v29.59L371.6,204.09h-48.238C318.154,204.09,313.934,199.868,313.934,194.664"/>
	<path clip-path="url(#SVGID_2_)" fill="none" stroke="#000000" stroke-width="0.25" stroke-miterlimit="10" d="M313.934,194.664
		v-48.753c0-5.206,4.219-9.427,9.426-9.427h67.404c5.204,0,9.426,4.221,9.426,9.427v29.59L371.6,204.09h-48.238
		C318.154,204.09,313.934,199.868,313.934,194.664z"/>
	<polygon clip-path="url(#SVGID_2_)" fill="#2CA835" points="486.549,199.2 522.07,170.286 486.549,141.374 	"/>
	<polygon clip-path="url(#SVGID_2_)" fill="none" stroke="#000000" stroke-width="0.25" stroke-miterlimit="10" points="
		486.549,199.2 522.07,170.286 486.549,141.374 	"/>
</g>
<g>
	<defs>
		<path id="SVGID_3_" d="M30.619,147.331c0,42.276,34.275,76.55,76.551,76.55c42.279,0,76.551-34.273,76.551-76.55
			c0-42.276-34.272-76.552-76.551-76.552C64.894,70.779,30.619,105.055,30.619,147.331"/>
	</defs>
	<clipPath id="SVGID_4_">
		<use xlink:href="#SVGID_3_"  overflow="visible"/>
	</clipPath>
	<path clip-path="url(#SVGID_4_)" fill="#FDBB90" d="M94.662,165.397h-6.229h-6.229c0,0-32.13,4.378-33.789,18.205v2.806h40.018
		h40.02v-2.806C126.795,169.775,94.662,165.397,94.662,165.397"/>
	<path clip-path="url(#SVGID_4_)" fill="#FDBB90" d="M112.04,132.422c-0.541,2.857,0.481,5.448,2.278,5.783
		c1.796,0.34,3.689-1.702,4.225-4.56c0.537-2.853-0.483-5.441-2.282-5.782C114.466,127.526,112.576,129.568,112.04,132.422"/>
	<path clip-path="url(#SVGID_4_)" fill="#CA9573" d="M115.291,136.226c-0.03,0-0.059-0.003-0.088-0.006
		c-0.186-0.049-0.348-0.044-0.439-0.134c-0.203-0.152-0.285-0.242-0.285-0.242s0.15,0.011,0.344,0.036l0.326-0.066l0.329-0.239
		c0.204-0.233,0.409-0.538,0.569-0.925c0.159-0.376,0.312-0.801,0.386-1.235c0.121-0.431,0.116-0.861,0.121-1.251
		c-0.051-0.171-0.024-0.387-0.104-0.519c-0.047-0.165-0.116-0.299-0.213-0.409c-0.076-0.148-0.192-0.187-0.289-0.288l-0.343-0.168
		c-0.211-0.076-0.33-0.137-0.33-0.137s0.13-0.038,0.349-0.074c0.081-0.008,0.165-0.035,0.271-0.035c0.043,0,0.094,0.005,0.147,0.016
		c0.168,0.038,0.419,0.047,0.591,0.195l0.302,0.208l0.237,0.302c0.182,0.214,0.236,0.472,0.336,0.741
		c0.031,0.261,0.118,0.546,0.089,0.818c0,0.283-0.032,0.555-0.086,0.829c-0.119,0.535-0.323,1.051-0.619,1.485
		c-0.277,0.436-0.669,0.793-1.077,0.98C115.636,136.176,115.454,136.226,115.291,136.226"/>
	<path clip-path="url(#SVGID_4_)" fill="#FDBB90" d="M65.701,132.422c0.539,2.857-0.481,5.448-2.278,5.783
		c-1.797,0.34-3.687-1.702-4.224-4.56c-0.535-2.853,0.482-5.441,2.28-5.782C63.275,127.526,65.166,129.568,65.701,132.422"/>
	<path clip-path="url(#SVGID_4_)" fill="#CA9573" d="M62.448,136.226c-0.161,0-0.345-0.05-0.521-0.118
		c-0.41-0.187-0.801-0.544-1.08-0.98c-0.295-0.434-0.498-0.95-0.617-1.485c-0.054-0.274-0.086-0.546-0.086-0.829
		c-0.029-0.272,0.06-0.557,0.09-0.818c0.098-0.269,0.152-0.527,0.336-0.741l0.234-0.302l0.304-0.208
		c0.171-0.148,0.423-0.157,0.592-0.195c0.052-0.011,0.102-0.016,0.145-0.016c0.106,0,0.191,0.027,0.271,0.035
		c0.222,0.036,0.35,0.074,0.35,0.074s-0.12,0.061-0.33,0.137l-0.344,0.168c-0.097,0.101-0.212,0.14-0.289,0.288
		c-0.096,0.11-0.164,0.244-0.212,0.409c-0.08,0.132-0.053,0.348-0.105,0.519c0.006,0.39,0.001,0.82,0.122,1.251
		c0.072,0.434,0.226,0.859,0.385,1.235c0.162,0.387,0.363,0.692,0.569,0.925l0.327,0.239l0.329,0.066
		c0.195-0.025,0.342-0.036,0.342-0.036s-0.077,0.09-0.279,0.242c-0.096,0.09-0.256,0.085-0.443,0.134
		C62.509,136.223,62.478,136.226,62.448,136.226"/>
	<rect x="82.204" y="157.184" clip-path="url(#SVGID_4_)" fill="#FDBB90" width="12.458" height="10.539"/>
	<path clip-path="url(#SVGID_4_)" fill="#CA9573" d="M82.204,165.28v-8.097h12.458v1.087
		C89.64,158.446,84.274,160.823,82.204,165.28"/>
	<path clip-path="url(#SVGID_4_)" fill="#FDBB90" d="M115.191,124.438c0,18.649-11.309,33.766-26.747,33.766
		c-15.441,0-26.45-15.669-26.45-34.315c-0.282-24.776,11.009-33.214,26.45-33.214C103.882,90.675,116.55,98.265,115.191,124.438"/>
	<path clip-path="url(#SVGID_4_)" fill="#BF0909" d="M96.4,165.673c-1.203,2.914-3.85,5.173-7.959,5.173
		c-4.112,0-6.76-2.259-7.962-5.176c-6.667,1.139-30.638,6.031-32.064,17.933v2.806h80.038v-2.806
		C127.025,171.713,103.085,166.815,96.4,165.673"/>
	<path clip-path="url(#SVGID_4_)" fill="#700C13" d="M96.4,165.673c-1.203,2.914-3.85,5.173-7.959,5.173
		c-4.112,0-6.76-2.259-7.962-5.176c-0.694,0.12-1.586,0.282-2.613,0.488c1.33,4.519,5.551,7.899,10.455,7.899h0.12
		c4.907,0,9.137-3.39,10.459-7.925C97.921,165.941,97.07,165.787,96.4,165.673"/>
	<path clip-path="url(#SVGID_4_)" fill="#26120B" d="M70.367,119.363l0.013-0.025c0.084-0.145,0.558-0.919,1.371-1.63
		c0.816-0.714,1.938-1.356,3.379-1.356c1.129,0.003,2.491,0.387,4.133,1.548c0.287,0.204,0.684,0.137,0.887-0.151
		c0.205-0.288,0.138-0.686-0.151-0.889c-1.799-1.28-3.44-1.784-4.869-1.784c-1.964,0-3.447,0.941-4.409,1.845
		c-0.969,0.905-1.454,1.791-1.474,1.83c-0.17,0.31-0.055,0.697,0.255,0.866C69.811,119.785,70.198,119.67,70.367,119.363"/>
	<path clip-path="url(#SVGID_4_)" fill="#26120B" d="M107.618,118.751c-0.022-0.039-0.505-0.925-1.473-1.831
		c-0.963-0.903-2.449-1.844-4.408-1.844c-1.432,0-3.071,0.504-4.868,1.784c-0.287,0.203-0.355,0.6-0.151,0.889
		c0.204,0.288,0.6,0.355,0.889,0.151c1.638-1.161,3.001-1.545,4.13-1.548c1.534,0,2.712,0.733,3.534,1.498
		c0.409,0.385,0.724,0.768,0.93,1.057c0.103,0.143,0.18,0.261,0.228,0.343l0.055,0.088l0.012,0.025
		c0.17,0.307,0.558,0.422,0.867,0.254C107.674,119.448,107.786,119.062,107.618,118.751"/>
	<path clip-path="url(#SVGID_4_)" fill="#C79472" d="M91.679,136.037c0,0,0.145,0.109,0.35,0.351
		c0.205,0.239,0.486,0.604,0.676,1.147c0.108,0.266,0.178,0.593,0.176,0.955c0.003,0.366-0.093,0.791-0.327,1.167
		c-0.131,0.168-0.269,0.354-0.429,0.507c-0.167,0.127-0.349,0.25-0.537,0.36c-0.372,0.173-0.768,0.308-1.146,0.382
		c-0.374,0.03-0.762,0.101-1.119,0.082c-0.36-0.006-0.708-0.052-1.046-0.076c-0.658-0.119-1.262-0.259-1.763-0.432
		c-0.994-0.365-1.606-0.73-1.606-0.73s0.723-0.107,1.739-0.085c0.511-0.014,1.094-0.033,1.71-0.017
		c0.301-0.016,0.61-0.052,0.925-0.046c0.315,0.002,0.599-0.083,0.902-0.11c0.286-0.04,0.554-0.126,0.792-0.211l0.313-0.156
		l0.237-0.201c0.118-0.157,0.235-0.324,0.289-0.546c0.051-0.215,0.093-0.453,0.083-0.684c0.002-0.464-0.071-0.886-0.125-1.182
		C91.723,136.214,91.679,136.037,91.679,136.037"/>
	<path clip-path="url(#SVGID_4_)" fill="#FFFFFF" d="M81.111,146.052c1.559,2.865,4.344,4.781,7.528,4.781
		c3.187,0,5.97-1.916,7.53-4.781H81.111z"/>
	<path clip-path="url(#SVGID_4_)" fill="#DCA27E" d="M81.111,146.052c5.02-0.421,10.038-0.55,15.058-0.587h0.024
		c0.314-0.004,0.571,0.252,0.575,0.565l-0.083,0.301l-0.649,1.058c-0.246,0.329-0.513,0.649-0.774,0.968
		c-0.284,0.299-0.593,0.579-0.893,0.868c-0.32,0.26-0.663,0.499-0.995,0.745c-0.358,0.213-0.728,0.41-1.095,0.603l-1.173,0.435
		l-1.261,0.258l-1.206,0.062l-1.234-0.131l-1.193-0.309l-1.128-0.494c-0.346-0.214-0.697-0.421-1.033-0.646
		c-0.315-0.255-0.626-0.512-0.92-0.782c-0.269-0.299-0.545-0.584-0.8-0.892l-0.685-0.977L81.111,146.052z M81.111,146.052
		l0.704,0.94l0.772,0.855l0.868,0.746l0.941,0.632l1.004,0.504l1.055,0.357l1.089,0.208l1.095,0.045l1.128-0.116l1.021-0.257
		l1.006-0.418l0.943-0.546l0.865-0.667l0.777-0.774l0.684-0.859l0.59-0.93l0.516,0.867
		C91.149,146.603,86.131,146.472,81.111,146.052"/>
	<path clip-path="url(#SVGID_4_)" fill="#26120B" d="M78.117,125.226c0,1.686-1.178,3.055-2.632,3.055
		c-1.456,0-2.637-1.369-2.637-3.055c0-1.688,1.181-3.057,2.637-3.057C76.939,122.168,78.117,123.538,78.117,125.226"/>
	<path clip-path="url(#SVGID_4_)" fill="#FFFFFF" d="M74.682,123.996c0,0.677-0.552,1.229-1.229,1.229
		c-0.677,0-1.228-0.552-1.228-1.229c0-0.676,0.551-1.227,1.228-1.227C74.13,122.769,74.682,123.32,74.682,123.996"/>
	<path clip-path="url(#SVGID_4_)" fill="#FFFFFF" d="M74.619,125.78c0,0.321-0.26,0.582-0.582,0.582
		c-0.322,0-0.584-0.261-0.584-0.582c0-0.325,0.262-0.582,0.584-0.582C74.359,125.198,74.619,125.455,74.619,125.78"/>
	<path clip-path="url(#SVGID_4_)" fill="#26120B" d="M98.856,125.226c0,1.686,1.182,3.055,2.635,3.055
		c1.456,0,2.636-1.369,2.636-3.055c0-1.688-1.18-3.057-2.636-3.057C100.038,122.168,98.856,123.538,98.856,125.226"/>
	<path clip-path="url(#SVGID_4_)" fill="#FFFFFF" d="M102.294,123.996c0,0.677,0.549,1.229,1.226,1.229
		c0.678,0,1.229-0.552,1.229-1.229c0-0.676-0.551-1.227-1.229-1.227C102.844,122.769,102.294,123.32,102.294,123.996"/>
	<path clip-path="url(#SVGID_4_)" fill="#FFFFFF" d="M102.355,125.78c0,0.321,0.263,0.582,0.585,0.582c0.32,0,0.58-0.261,0.58-0.582
		c0-0.325-0.26-0.582-0.58-0.582C102.618,125.198,102.355,125.455,102.355,125.78"/>
	<path clip-path="url(#SVGID_4_)" fill="#411E17" d="M110.405,87.008c0,0,4.773,4.214,9.74-2.087c0,0-0.568,6.057-4.103,8.28
		c0,0,3.338,3.296,7.346-0.107c0,0,1.147,4.236-3.437,8.247c0,0,0.772,11.695-2.349,23.097l-1.342,3.425l-1.234,0.417l-0.668,4.753
		h-1.279l1.4-15.649c0,0,1.28-18.526-15.623-19.099c0,0-7.554-1.351-8.888,4.193c0,0-0.252-5.72-10.337-4.193
		c0,0-4.911-7.61,2.573-14.321C82.204,83.964,94.176,74.776,110.405,87.008"/>
	<path clip-path="url(#SVGID_4_)" fill="#411E17" d="M67.167,87.008c16.229-12.232,32.355-5.538,32.355-5.538
		c7.49,6.71-1.579,16.815-1.579,16.815c-7.111-0.761-7.975,4.193-7.975,4.193c-0.09-6.005-11.252-4.193-11.252-4.193
		c-14.043,0.669-14.52,19.099-14.52,19.099l0.299,15.649h-1.28l-0.668-4.753l-1.237-0.417
		C61.311,127.863,52.955,97.877,67.167,87.008"/>
</g>
<g>
	<defs>
		<rect id="SVGID_5_" width="589.787" height="340.085"/>
	</defs>
	<clipPath id="SVGID_6_">
		<use xlink:href="#SVGID_5_"  overflow="visible"/>
	</clipPath>
	<path clip-path="url(#SVGID_6_)" fill="#CDD0D3" d="M131.184,209.148H45.496c-1.061,0-1.921-0.86-1.921-1.921v-6.254
		c0-1.062,0.86-1.922,1.921-1.922h85.688c1.062,0,1.922,0.86,1.922,1.922v6.254C133.106,208.288,132.246,209.148,131.184,209.148"/>
	<path clip-path="url(#SVGID_6_)" fill="#CDD0D3" d="M131.184,231.361H45.496c-1.061,0-1.921-0.86-1.921-1.922v-6.253
		c0-1.062,0.86-1.922,1.921-1.922h85.688c1.062,0,1.922,0.86,1.922,1.922v6.253C133.106,230.501,132.246,231.361,131.184,231.361"/>
	<path clip-path="url(#SVGID_6_)" fill="#CDD0D3" d="M132.546,253.574H46.858c-1.062,0-1.922-0.86-1.922-1.922v-6.253
		c0-1.062,0.86-1.922,1.922-1.922h85.688c1.062,0,1.922,0.86,1.922,1.922v6.253C134.468,252.714,133.608,253.574,132.546,253.574"/>
</g>
</svg>
