<?xml version="1.0" encoding="utf-8"?>
<!-- Generator: Adobe Illustrator 25.2.1, SVG Export Plug-In . SVG Version: 6.00 Build 0)  -->
<svg version="1.1" id="Capa_1" xmlns="http://www.w3.org/2000/svg" xmlns:xlink="http://www.w3.org/1999/xlink" x="0px" y="0px"
	 viewBox="0 0 589.8 340.1" style="enable-background:new 0 0 589.8 340.1;" xml:space="preserve">
<style type="text/css">
	.st0{clip-path:url(#SVGID_3_);}
	.st1{clip-path:url(#SVGID_7_);}
	.st2{clip-path:url(#SVGID_11_);}
	.st3{clip-path:url(#SVGID_15_);}
	.st4{clip-path:url(#SVGID_19_);}
	.st5{clip-path:url(#SVGID_23_);}
	.st6{clip-path:url(#SVGID_27_);}
	.st7{clip-path:url(#SVGID_31_);}
	.st8{clip-path:url(#SVGID_35_);}
	.st9{clip-path:url(#SVGID_39_);}
	.st10{clip-path:url(#SVGID_43_);}
	.st11{clip-path:url(#SVGID_47_);}
	.st12{clip-path:url(#SVGID_48_);fill:#EDEFF4;}
	.st13{clip-path:url(#SVGID_51_);}
	.st14{clip-path:url(#SVGID_55_);}
	.st15{clip-path:url(#SVGID_56_);fill:#EDEFF4;}
	.st16{clip-path:url(#SVGID_59_);}
	.st17{clip-path:url(#SVGID_63_);}
	.st18{clip-path:url(#SVGID_64_);fill:#EDEFF4;}
	.st19{clip-path:url(#SVGID_67_);}
	.st20{clip-path:url(#SVGID_68_);fill:none;stroke:#353434;stroke-width:0.25;stroke-miterlimit:10;}
	.st21{clip-path:url(#SVGID_71_);}
	.st22{clip-path:url(#SVGID_75_);}
	.st23{clip-path:url(#SVGID_79_);}
	.st24{clip-path:url(#SVGID_83_);}
	.st25{clip-path:url(#SVGID_87_);}
	.st26{clip-path:url(#SVGID_91_);}
	.st27{clip-path:url(#SVGID_95_);}
	.st28{fill:#648495;}
	.st29{fill:#7CB2AB;}
	.st30{fill:#EDD366;}
	.st31{fill:#EDE9ED;}
	.st32{fill:#B3B3B3;}
	.st33{fill:#F4F4F6;}
	.st34{fill:none;}
	.st35{fill:#FFFFFF;}
	.st36{fill:none;stroke:#000000;stroke-width:5;stroke-miterlimit:10;}
	.st37{fill:#D6E4E5;}
	.st38{fill:none;stroke:#000000;stroke-width:0.25;stroke-miterlimit:10;}
	.st39{fill:#BF0909;}
	.st40{fill:#CDD0D3;}
	.st41{fill:#33567E;}
	.st42{fill:#333333;}
	.st43{fill:#FBF7F4;}
	.st44{fill:#848383;}
	.st45{fill:#AEAEAF;}
</style>
<g>
	<g>
		<defs>
			<line id="SVGID_1_" x1="67.3" y1="299.5" x2="389.4" y2="85.9"/>
		</defs>
		<defs>
			<path id="SVGID_2_" d="M418.7,449"/>
		</defs>
		<clipPath id="SVGID_3_">
			<use xlink:href="#SVGID_1_"  style="overflow:visible;"/>
		</clipPath>
		<clipPath id="SVGID_4_" class="st0">
			<use xlink:href="#SVGID_2_"  style="overflow:visible;"/>
		</clipPath>
	</g>
	<g>
		<defs>
			<line id="SVGID_5_" x1="67.3" y1="299.5" x2="389.4" y2="85.9"/>
		</defs>
		<defs>
			<path id="SVGID_6_" d="M418.7,449"/>
		</defs>
		<clipPath id="SVGID_7_">
			<use xlink:href="#SVGID_5_"  style="overflow:visible;"/>
		</clipPath>
		<clipPath id="SVGID_8_" class="st1">
			<use xlink:href="#SVGID_6_"  style="overflow:visible;"/>
		</clipPath>
	</g>
	<g>
		<defs>
			<line id="SVGID_9_" x1="67.3" y1="299.5" x2="389.4" y2="85.9"/>
		</defs>
		<defs>
			<path id="SVGID_10_" d="M418.7,449"/>
		</defs>
		<clipPath id="SVGID_11_">
			<use xlink:href="#SVGID_9_"  style="overflow:visible;"/>
		</clipPath>
		<clipPath id="SVGID_12_" class="st2">
			<use xlink:href="#SVGID_10_"  style="overflow:visible;"/>
		</clipPath>
	</g>
	<g>
		<defs>
			<line id="SVGID_13_" x1="67.3" y1="299.5" x2="389.4" y2="85.9"/>
		</defs>
		<defs>
			<path id="SVGID_14_" d="M418.7,449"/>
		</defs>
		<clipPath id="SVGID_15_">
			<use xlink:href="#SVGID_13_"  style="overflow:visible;"/>
		</clipPath>
		<clipPath id="SVGID_16_" class="st3">
			<use xlink:href="#SVGID_14_"  style="overflow:visible;"/>
		</clipPath>
	</g>
	<g>
		<defs>
			<line id="SVGID_17_" x1="67.3" y1="299.5" x2="389.4" y2="85.9"/>
		</defs>
		<defs>
			<path id="SVGID_18_" d="M418.7,449"/>
		</defs>
		<clipPath id="SVGID_19_">
			<use xlink:href="#SVGID_17_"  style="overflow:visible;"/>
		</clipPath>
		<clipPath id="SVGID_20_" class="st4">
			<use xlink:href="#SVGID_18_"  style="overflow:visible;"/>
		</clipPath>
	</g>
	<g>
		<defs>
			<line id="SVGID_21_" x1="67.3" y1="299.5" x2="389.4" y2="85.9"/>
		</defs>
		<defs>
			<path id="SVGID_22_" d="M418.7,449"/>
		</defs>
		<clipPath id="SVGID_23_">
			<use xlink:href="#SVGID_21_"  style="overflow:visible;"/>
		</clipPath>
		<clipPath id="SVGID_24_" class="st5">
			<use xlink:href="#SVGID_22_"  style="overflow:visible;"/>
		</clipPath>
	</g>
	<g>
		<defs>
			<line id="SVGID_25_" x1="67.3" y1="299.5" x2="389.4" y2="85.9"/>
		</defs>
		<defs>
			<path id="SVGID_26_" d="M418.7,449"/>
		</defs>
		<clipPath id="SVGID_27_">
			<use xlink:href="#SVGID_25_"  style="overflow:visible;"/>
		</clipPath>
		<clipPath id="SVGID_28_" class="st6">
			<use xlink:href="#SVGID_26_"  style="overflow:visible;"/>
		</clipPath>
	</g>
	<g>
		<defs>
			<line id="SVGID_29_" x1="67.3" y1="299.5" x2="389.4" y2="85.9"/>
		</defs>
		<defs>
			<path id="SVGID_30_" d="M418.7,449"/>
		</defs>
		<clipPath id="SVGID_31_">
			<use xlink:href="#SVGID_29_"  style="overflow:visible;"/>
		</clipPath>
		<clipPath id="SVGID_32_" class="st7">
			<use xlink:href="#SVGID_30_"  style="overflow:visible;"/>
		</clipPath>
	</g>
	<g>
		<defs>
			<line id="SVGID_33_" x1="67.3" y1="299.5" x2="389.4" y2="85.9"/>
		</defs>
		<defs>
			<path id="SVGID_34_" d="M418.7,449"/>
		</defs>
		<clipPath id="SVGID_35_">
			<use xlink:href="#SVGID_33_"  style="overflow:visible;"/>
		</clipPath>
		<clipPath id="SVGID_36_" class="st8">
			<use xlink:href="#SVGID_34_"  style="overflow:visible;"/>
		</clipPath>
	</g>
	<g>
		<defs>
			<line id="SVGID_37_" x1="67.3" y1="299.5" x2="389.4" y2="85.9"/>
		</defs>
		<defs>
			<path id="SVGID_38_" d="M418.7,449"/>
		</defs>
		<clipPath id="SVGID_39_">
			<use xlink:href="#SVGID_37_"  style="overflow:visible;"/>
		</clipPath>
		<clipPath id="SVGID_40_" class="st9">
			<use xlink:href="#SVGID_38_"  style="overflow:visible;"/>
		</clipPath>
	</g>
	<g>
		<defs>
			<line id="SVGID_41_" x1="67.3" y1="299.5" x2="389.4" y2="85.9"/>
		</defs>
		<defs>
			<path id="SVGID_42_" d="M418.7,449"/>
		</defs>
		<clipPath id="SVGID_43_">
			<use xlink:href="#SVGID_41_"  style="overflow:visible;"/>
		</clipPath>
		<clipPath id="SVGID_44_" class="st10">
			<use xlink:href="#SVGID_42_"  style="overflow:visible;"/>
		</clipPath>
	</g>
	<g>
		<defs>
			<line id="SVGID_45_" x1="67.3" y1="299.5" x2="389.4" y2="85.9"/>
		</defs>
		<defs>
			<path id="SVGID_46_" d="M418.7,449"/>
		</defs>
		<clipPath id="SVGID_47_">
			<use xlink:href="#SVGID_45_"  style="overflow:visible;"/>
		</clipPath>
		<clipPath id="SVGID_48_" class="st11">
			<use xlink:href="#SVGID_46_"  style="overflow:visible;"/>
		</clipPath>
		<path class="st12" d="M394.2,535.5c5.8-1.9,13.1,4,16.2,13.2l47.5,142.6c3.1,9.2,0.8,18.3-5,20.3L283.5,768
			c-5.8,1.9-13.1-4-16.2-13.2l-47.5-142.6"/>
	</g>
	<g>
		<defs>
			<line id="SVGID_49_" x1="67.3" y1="299.5" x2="389.4" y2="85.9"/>
		</defs>
		<defs>
			<path id="SVGID_50_" d="M418.7,449"/>
		</defs>
		<clipPath id="SVGID_51_">
			<use xlink:href="#SVGID_49_"  style="overflow:visible;"/>
		</clipPath>
		<clipPath id="SVGID_52_" class="st13">
			<use xlink:href="#SVGID_50_"  style="overflow:visible;"/>
		</clipPath>
	</g>
	<g>
		<defs>
			<line id="SVGID_53_" x1="67.3" y1="299.5" x2="389.4" y2="85.9"/>
		</defs>
		<defs>
			<path id="SVGID_54_" d="M418.7,449"/>
		</defs>
		<clipPath id="SVGID_55_">
			<use xlink:href="#SVGID_53_"  style="overflow:visible;"/>
		</clipPath>
		<clipPath id="SVGID_56_" class="st14">
			<use xlink:href="#SVGID_54_"  style="overflow:visible;"/>
		</clipPath>
		<path class="st15" d="M391.3,552.6L437.4,691c3,9,0.8,17.8-4.9,19.7L267,765.8c-5.7,1.9-12.8-3.8-15.8-12.8l-46.1-138.4l0,0
			c-3-9-0.8-17.8,4.9-19.7"/>
	</g>
	<g>
		<defs>
			<line id="SVGID_57_" x1="67.3" y1="299.5" x2="389.4" y2="85.9"/>
		</defs>
		<defs>
			<path id="SVGID_58_" d="M418.7,449"/>
		</defs>
		<clipPath id="SVGID_59_">
			<use xlink:href="#SVGID_57_"  style="overflow:visible;"/>
		</clipPath>
		<clipPath id="SVGID_60_" class="st16">
			<use xlink:href="#SVGID_58_"  style="overflow:visible;"/>
		</clipPath>
	</g>
	<g>
		<defs>
			<line id="SVGID_61_" x1="67.3" y1="299.5" x2="389.4" y2="85.9"/>
		</defs>
		<defs>
			<path id="SVGID_62_" d="M418.7,449"/>
		</defs>
		<clipPath id="SVGID_63_">
			<use xlink:href="#SVGID_61_"  style="overflow:visible;"/>
		</clipPath>
		<clipPath id="SVGID_64_" class="st17">
			<use xlink:href="#SVGID_62_"  style="overflow:visible;"/>
		</clipPath>
		<line class="st18" x1="323.2" y1="598.8" x2="292.8" y2="608.8"/>
	</g>
	<g>
		<defs>
			<line id="SVGID_65_" x1="67.3" y1="299.5" x2="389.4" y2="85.9"/>
		</defs>
		<defs>
			<path id="SVGID_66_" d="M418.7,449"/>
		</defs>
		<clipPath id="SVGID_67_">
			<use xlink:href="#SVGID_65_"  style="overflow:visible;"/>
		</clipPath>
		<clipPath id="SVGID_68_" class="st19">
			<use xlink:href="#SVGID_66_"  style="overflow:visible;"/>
		</clipPath>
		<line class="st20" x1="330.6" y1="598.4" x2="300.1" y2="608.4"/>
	</g>
	<g>
		<defs>
			<line id="SVGID_69_" x1="67.3" y1="299.5" x2="389.4" y2="85.9"/>
		</defs>
		<defs>
			<path id="SVGID_70_" d="M418.7,449"/>
		</defs>
		<clipPath id="SVGID_71_">
			<use xlink:href="#SVGID_69_"  style="overflow:visible;"/>
		</clipPath>
		<clipPath id="SVGID_72_" class="st21">
			<use xlink:href="#SVGID_70_"  style="overflow:visible;"/>
		</clipPath>
	</g>
	<g>
		<defs>
			<line id="SVGID_73_" x1="67.3" y1="299.5" x2="389.4" y2="85.9"/>
		</defs>
		<defs>
			<path id="SVGID_74_" d="M418.7,449"/>
		</defs>
		<clipPath id="SVGID_75_">
			<use xlink:href="#SVGID_73_"  style="overflow:visible;"/>
		</clipPath>
		<clipPath id="SVGID_76_" class="st22">
			<use xlink:href="#SVGID_74_"  style="overflow:visible;"/>
		</clipPath>
	</g>
	<g>
		<defs>
			<line id="SVGID_77_" x1="67.3" y1="299.5" x2="389.4" y2="85.9"/>
		</defs>
		<defs>
			<path id="SVGID_78_" d="M418.7,449"/>
		</defs>
		<clipPath id="SVGID_79_">
			<use xlink:href="#SVGID_77_"  style="overflow:visible;"/>
		</clipPath>
		<clipPath id="SVGID_80_" class="st23">
			<use xlink:href="#SVGID_78_"  style="overflow:visible;"/>
		</clipPath>
	</g>
	<g>
		<defs>
			<line id="SVGID_81_" x1="67.3" y1="299.5" x2="389.4" y2="85.9"/>
		</defs>
		<defs>
			<path id="SVGID_82_" d="M418.7,449"/>
		</defs>
		<clipPath id="SVGID_83_">
			<use xlink:href="#SVGID_81_"  style="overflow:visible;"/>
		</clipPath>
		<clipPath id="SVGID_84_" class="st24">
			<use xlink:href="#SVGID_82_"  style="overflow:visible;"/>
		</clipPath>
	</g>
</g>
<g>
	<g>
		<defs>
			<line id="SVGID_85_" x1="67.3" y1="299.5" x2="389.4" y2="85.9"/>
		</defs>
		<defs>
			<path id="SVGID_86_" d="M418.7,449"/>
		</defs>
		<clipPath id="SVGID_87_">
			<use xlink:href="#SVGID_85_"  style="overflow:visible;"/>
		</clipPath>
		<clipPath id="SVGID_88_" class="st25">
			<use xlink:href="#SVGID_86_"  style="overflow:visible;"/>
		</clipPath>
	</g>
	<g>
		<defs>
			<line id="SVGID_89_" x1="67.3" y1="299.5" x2="389.4" y2="85.9"/>
		</defs>
		<defs>
			<path id="SVGID_90_" d="M418.7,449"/>
		</defs>
		<clipPath id="SVGID_91_">
			<use xlink:href="#SVGID_89_"  style="overflow:visible;"/>
		</clipPath>
		<clipPath id="SVGID_92_" class="st26">
			<use xlink:href="#SVGID_90_"  style="overflow:visible;"/>
		</clipPath>
	</g>
	<g>
		<defs>
			<line id="SVGID_93_" x1="67.3" y1="299.5" x2="389.4" y2="85.9"/>
		</defs>
		<defs>
			<path id="SVGID_94_" d="M418.7,449"/>
		</defs>
		<clipPath id="SVGID_95_">
			<use xlink:href="#SVGID_93_"  style="overflow:visible;"/>
		</clipPath>
		<clipPath id="SVGID_96_" class="st27">
			<use xlink:href="#SVGID_94_"  style="overflow:visible;"/>
		</clipPath>
	</g>
</g>
<g>
	<path class="st28" d="M-1491,494.7h-171.4v-71.7h171.4c10.9,0,19.7,8.8,19.7,19.7V475C-1471.3,485.9-1480.1,494.7-1491,494.7z"/>
	<path class="st29" d="M-1471.3,488.2L-1471.3,488.2l0-58.7l0,0c8.6,0,15.5,7,15.5,15.5v27.6
		C-1455.7,481.3-1462.7,488.2-1471.3,488.2z"/>
	<rect x="-1662.4" y="423.1" class="st30" width="9.6" height="71.7"/>
	<g>
		<rect x="-1713.8" y="433.2" class="st31" width="51.4" height="51.4"/>
		<rect x="-1693.2" y="440.5" class="st32" width="12.1" height="12.1"/>
		<rect x="-1693.2" y="465.5" class="st32" width="12.1" height="12.1"/>
		<g>
			<rect x="-1713.8" y="440.8" class="st33" width="14.6" height="4.1"/>
			<rect x="-1713.8" y="448.8" class="st33" width="14.6" height="4.1"/>
			<rect x="-1713.8" y="456.8" class="st33" width="14.6" height="4.1"/>
			<rect x="-1713.8" y="464.9" class="st33" width="14.6" height="4.1"/>
			<rect x="-1713.8" y="472.9" class="st33" width="14.6" height="4.1"/>
		</g>
	</g>
</g>
<polyline class="st34" points="691.2,455.3 -7.5,368.1 -7.5,-31.2 691.2,56 "/>
<path class="st35" d="M346.4,214.6c-6.1,0-11.1-5-11.1-11.1"/>
<path class="st35" d="M335.4,203.6v-57.2c0-6.1,5-11.1,11.1-11.1"/>
<polyline class="st34" points="691.2,455.3 -7.5,368.1 -7.5,-31.2 691.2,56 "/>
<path class="st36" d="M346.4,214.6c-6.1,0-11.1-5-11.1-11.1v-57.2c0-6.1,5-11.1,11.1-11.1"/>
<polyline class="st34" points="691.2,455.3 -7.5,368.1 -7.5,-31.2 691.2,56 "/>
<path class="st37" d="M445.4,307.6l-400.8,0c-13.7,0-24.8-8.1-24.8-18l0-240.2c0-9.9,11.1-18,24.8-18l400.8,0
	c13.7,0,24.8,8.1,24.8,18l0,240.2C470.2,299.6,459.1,307.6,445.4,307.6"/>
<polyline class="st34" points="691.2,455.3 -7.5,368.1 -7.5,-31.2 691.2,56 "/>
<path class="st38" d="M445.4,307.6l-400.8,0c-13.7,0-24.8-8.1-24.8-18l0-240.2c0-9.9,11.1-18,24.8-18l400.8,0
	c13.7,0,24.8,8.1,24.8,18l0,240.2C470.2,299.6,459.1,307.6,445.4,307.6z"/>
<polyline class="st34" points="691.2,455.3 -7.5,368.1 -7.5,-31.2 691.2,56 "/>
<path class="st39" d="M303,95.4l-126.7,0c-2.1,0-3.9-1.7-3.9-3.9V72.2c0-2.1,1.7-3.9,3.9-3.9l126.7,0c2.1,0,3.9,1.7,3.9,3.9l0,19.4
	C306.9,93.7,305.1,95.4,303,95.4"/>
<polyline class="st34" points="691.2,455.3 -7.5,368.1 -7.5,-31.2 691.2,56 "/>
<polyline class="st34" points="691.2,455.3 -7.5,368.1 -7.5,-31.2 691.2,56 "/>
<path class="st40" d="M303.8,175.2H174.5c-1.4,0-2.6-1.1-2.6-2.6v-6.8c0-1.4,1.1-2.6,2.6-2.6h129.3c1.4,0,2.6,1.1,2.6,2.6v6.8
	C306.4,174.1,305.2,175.2,303.8,175.2"/>
<path class="st40" d="M446.5,214.5l-129.3,0c-1.4,0-2.6-1.1-2.6-2.6v-6.8c0-1.4,1.1-2.6,2.6-2.6l129.3,0c1.4,0,2.6,1.1,2.6,2.6v6.8
	C449.1,213.4,447.9,214.5,446.5,214.5"/>
<path class="st40" d="M445.2,241.2l-129.3,0c-1.4,0-2.6-1.1-2.6-2.6v-6.8c0-1.4,1.1-2.6,2.6-2.6h129.3c1.4,0,2.6,1.1,2.6,2.6v6.8
	C447.7,240.1,446.6,241.2,445.2,241.2"/>
<path class="st40" d="M445.2,266.2H315.9c-1.4,0-2.6-1.1-2.6-2.6v-6.8c0-1.4,1.1-2.6,2.6-2.6l129.3,0c1.4,0,2.6,1.1,2.6,2.6v6.8
	C447.7,265,446.6,266.2,445.2,266.2"/>
<polyline class="st34" points="691.2,455.3 -7.5,368.1 -7.5,-31.2 691.2,56 "/>
<path class="st40" d="M304.1,123l-129.3,0c-1.4,0-2.6-1.1-2.6-2.6v-6.8c0-1.4,1.1-2.6,2.6-2.6l129.3,0c1.4,0,2.6,1.1,2.6,2.6v6.8
	C306.7,121.9,305.6,123,304.1,123"/>
<polyline class="st34" points="691.2,455.3 -7.5,368.1 -7.5,-31.2 691.2,56 "/>
<path class="st40" d="M304.1,149.1l-129.3,0c-1.4,0-2.6-1.1-2.6-2.6v-6.8c0-1.4,1.1-2.6,2.6-2.6l129.3,0c1.4,0,2.6,1.1,2.6,2.6v6.8
	C306.7,148,305.6,149.1,304.1,149.1"/>
<polyline class="st34" points="691.2,455.3 -7.5,368.1 -7.5,-31.2 691.2,56 "/>
<polyline class="st34" points="691.2,455.3 -7.5,368.1 -7.5,-31.2 691.2,56 "/>
<polyline class="st34" points="691.2,455.3 -7.5,368.1 -7.5,-31.2 691.2,56 "/>
<polyline class="st34" points="691.2,455.3 -7.5,368.1 -7.5,-31.2 691.2,56 "/>
<polyline class="st34" points="691.2,455.3 -7.5,368.1 -7.5,-31.2 691.2,56 "/>
<polyline class="st34" points="691.2,455.3 -7.5,368.1 -7.5,-31.2 691.2,56 "/>
<polyline class="st34" points="691.2,455.3 -7.5,368.1 -7.5,-31.2 691.2,56 "/>
<polyline class="st34" points="691.2,455.3 -7.5,368.1 -7.5,-31.2 691.2,56 "/>
<polyline class="st34" points="691.2,455.3 -7.5,368.1 -7.5,-31.2 691.2,56 "/>
<polyline class="st34" points="691.2,455.3 -7.5,368.1 -7.5,-31.2 691.2,56 "/>
<polyline class="st34" points="691.2,455.3 -7.5,368.1 -7.5,-31.2 691.2,56 "/>
<polyline class="st34" points="691.2,455.3 -7.5,368.1 -7.5,-31.2 691.2,56 "/>
<rect x="406.4" y="125.1" class="st40" width="41.3" height="23.7"/>
<polyline class="st34" points="691.2,455.3 -7.5,368.1 -7.5,-31.2 691.2,56 "/>
<path class="st40" d="M146.6,219.1l-100.6,0c-1.2,0-2.3-1-2.3-2.3v-7.3c0-1.2,1-2.3,2.3-2.3h100.6c1.2,0,2.3,1,2.3,2.3v7.3
	C148.8,218.1,147.8,219.1,146.6,219.1"/>
<polyline class="st34" points="691.2,455.3 -7.5,368.1 -7.5,-31.2 691.2,56 "/>
<path class="st40" d="M146.6,258H46c-1.2,0-2.3-1-2.3-2.3v-7.3c0-1.2,1-2.3,2.3-2.3h100.6c1.2,0,2.3,1,2.3,2.3v7.3
	C148.8,256.9,147.8,258,146.6,258"/>
<polyline class="st34" points="691.2,455.3 -7.5,368.1 -7.5,-31.2 691.2,56 "/>
<g>
	<g>
		<g>
			<path class="st41" d="M533.6,300.5l-249.4-38.1l15.4-100.8L549,199.7c10.8,1.6,18.2,11.7,16.5,22.5l-9.4,61.8
				C554.5,294.7,544.4,302.1,533.6,300.5z"/>
			<path class="st42" d="M560.9,295.6l-12.4-1.9l12.7-83.4l12.4,1.9c5.2,0.8,8.8,5.6,8,10.8l-9.9,64.6
				C570.9,292.9,566.1,296.4,560.9,295.6z"/>
			
				<rect x="291.9" y="162" transform="matrix(0.9885 0.1509 -0.1509 0.9885 35.5709 -42.6349)" class="st30" width="13.6" height="102"/>
			<g>
				
					<rect x="219.3" y="169.9" transform="matrix(0.9885 0.1509 -0.1509 0.9885 34.0927 -36.2423)" class="st43" width="73.1" height="73.1"/>
				
					<rect x="251.3" y="180.8" transform="matrix(0.9885 0.1509 -0.1509 0.9885 31.5591 -37.0516)" class="st44" width="17.3" height="17.3"/>
				
					<rect x="245.9" y="215.9" transform="matrix(0.9885 0.1509 -0.1509 0.9885 36.7993 -35.8399)" class="st44" width="17.3" height="17.3"/>
				<g>
					
						<rect x="223" y="177" transform="matrix(0.9885 0.1509 -0.1509 0.9885 29.8326 -33.166)" class="st45" width="20.8" height="5.8"/>
					
						<rect x="221.3" y="188.3" transform="matrix(0.9885 0.1509 -0.1509 0.9885 31.5169 -32.7765)" class="st45" width="20.8" height="5.8"/>
					
						<rect x="219.6" y="199.6" transform="matrix(0.9885 0.1509 -0.1509 0.9885 33.2012 -32.387)" class="st45" width="20.8" height="5.8"/>
					
						<rect x="217.8" y="210.9" transform="matrix(0.9885 0.1509 -0.1509 0.9885 34.8856 -31.9975)" class="st45" width="20.8" height="5.8"/>
					
						<rect x="216.1" y="222.2" transform="matrix(0.9885 0.1509 -0.1509 0.9885 36.5699 -31.6081)" class="st45" width="20.8" height="5.8"/>
				</g>
			</g>
		</g>
	</g>
</g>
<g>
	<g>
		<path class="st39" d="M100.4,137.4c0.2,0,0.4,0,0.4,0c0,0,0,0,0,0c0.1,0,3.4-0.4,5.2-2.5c2.3-2.7,3.3-7.3,1.2-9.5
			c-1-1.1-2.2-1.6-3.4-1.3c-1.2,0.2-2.2,1.1-2.7,2.4c-0.1,0.3,0,0.6,0.2,0.7c0.2,0.2,0.5,0.1,0.7,0c0.5-0.5,1-0.7,1.4-0.6
			c0.4,0.1,0.7,0.5,0.8,1c0.2,0.5,0.1,1.1-0.2,1.6c-0.1,0.2-0.3,0.4-0.6,0.4c-0.9,0.1-2.2-1-3.6-2.2c-1.4-1.2-2.9-2.5-4.7-3.2
			c-2.4-1-8.9-2.5-13.5,1.1c0,0,0,0-0.1,0c-0.1,0.1-2.8,2.2-3.3,4.4c-1,2.1-1.1,4-0.4,5.8c-0.6,0.5-0.9,1.1-0.9,1.7
			c0,1.4,1.5,2.5,3.6,2.7c-0.2,0.3-0.3,0.7-0.3,1.1c0,1.5,1.7,2.7,3.9,2.7c1.6,0,3-0.6,3.6-1.5c0.6,0.9,2,1.5,3.6,1.5
			c2.2,0,3.9-1.2,3.9-2.7c0-0.4-0.1-0.7-0.3-1.1c1.3-0.1,2.4-0.6,3.1-1.3c0.1,0,0.2-0.1,0.3-0.1C98.7,137.8,99.6,137.6,100.4,137.4z
			 M103.6,135.2c-0.6,0.3-1.2,0.5-1.7,0.7c0,0,0,0-0.1,0c0.3-2.9-1.2-5.8-1.9-6.8c1,0.8,1.9,1.5,2.8,1.7
			C103.3,131.6,103.8,133.1,103.6,135.2z M98.7,136.6c-0.1-0.4-0.5-1.2-1.1-2.5c-0.9-2-2.8-4.7-7.1-6.1c-5.6-1.8-8.7-0.9-10.1-0.1
			c0.1-0.1,0.2-0.2,0.3-0.3c0.1,0,0.1-0.1,0.2-0.2c0.4-0.5,0.9-1,1.4-1.3c2-0.7,5-1,9.3,0.3c5.8,1.8,7.5,6.1,8,7.9
			c0.2,0.6,0.3,1.3,0.3,1.8c0,0-0.1,0-0.1,0c-0.1,0-0.2,0.1-0.3,0.1C99.2,136.4,98.9,136.5,98.7,136.6z M89.9,130.8
			c-0.9,0.2-1.6,0.6-2,1.1c-0.7-0.8-1.9-1.3-3.4-1.3c-0.5,0-1,0.1-1.4,0.2c1.4-0.5,3.3-0.7,5.2-0.4
			C88.8,130.5,89.3,130.6,89.9,130.8z M84.5,131.8c1.6,0,2.7,0.8,2.7,1.4c0,0.4-0.3,0.7-0.9,1c-0.1,0.1-0.3,0.1-0.5,0.2
			c-0.4,0.1-0.9,0.2-1.4,0.2c-1.6,0-2.7-0.8-2.7-1.4C81.7,132.6,82.8,131.8,84.5,131.8z M86.3,135.8c0.1-0.1,0.3-0.1,0.5-0.1
			c0.3-0.1,0.6-0.1,0.9-0.1c1.6,0,2.7,0.8,2.7,1.4c0,0.7-1.1,1.4-2.7,1.4c-1.6,0-2.7-0.8-2.7-1.4C85,136.5,85.5,136.1,86.3,135.8z
			 M88.5,133.3c0-0.7,1.1-1.4,2.7-1.4c0.3,0,0.5,0,0.8,0.1c1.1,0.2,1.9,0.8,1.9,1.3v0c0,0.5-0.5,0.9-1.3,1.2
			c-0.4,0.1-0.9,0.2-1.4,0.2C89.7,134.7,88.5,133.9,88.5,133.3z M80.2,134.4c0-0.2-0.1-0.5,0-0.7c0.1-0.6,0.3-1.1,0.8-1.6
			c-0.3,0.4-0.4,0.8-0.4,1.2c0,0.4,0.1,0.7,0.3,1.1C80.6,134.3,80.4,134.4,80.2,134.4z M94.9,134.3C95,134.3,95,134.3,94.9,134.3
			C95,134.4,94.9,134.4,94.9,134.3C94.9,134.3,94.9,134.3,94.9,134.3z M78.1,137c0-0.3,0.3-0.7,0.7-0.9c0.3-0.2,0.8-0.3,1.2-0.4
			c0.3,0,0.5-0.1,0.8-0.1c1.6,0,2.7,0.8,2.7,1.4c0,0.4-0.3,0.7-0.5,0.8c-0.5,0.4-1.3,0.6-2.2,0.6C79.3,138.4,78.1,137.7,78.1,137z
			 M84.1,142.2c-1.6,0-2.7-0.7-2.7-1.4c0-0.7,1.2-1.4,2.7-1.4c0,0,0,0,0,0s0-0.1,0-0.1c0,0,0,0,0,0c0.8,0,1.6,0.2,2.1,0.6
			c0.2,0.1,0.6,0.4,0.6,0.8C86.9,141.4,85.7,142.2,84.1,142.2z M91.3,142.2c-1.6,0-2.7-0.8-2.7-1.4c0-0.2,0.1-0.4,0.3-0.7
			c0,0,0,0,0,0c0.5-0.5,1.4-0.8,2.4-0.8c0.5,0,1,0.1,1.4,0.2c0.8,0.3,1.3,0.7,1.3,1.2C94,141.4,92.9,142.2,91.3,142.2z M97.2,137.4
			c-0.3,0.5-1.3,1-2.6,1c-0.5,0-0.9-0.1-1.3-0.2c-0.9-0.3-1.4-0.8-1.4-1.2c0-0.5,0.5-0.9,1.3-1.2c0.4-0.1,0.9-0.2,1.4-0.2
			c0.3,0,0.6,0,0.9,0.1c1.1,0.2,1.8,0.8,1.8,1.3C97.3,137.1,97.2,137.3,97.2,137.4z"/>
		<path class="st39" d="M132.7,122.6V88.9c0-0.4-0.1-0.7-0.4-0.9s-0.7-0.2-1,0l-3.4,2V78.1c0-0.4-0.2-0.8-0.5-0.9
			c-0.3-0.2-0.7-0.2-1.1,0l-16.1,10.4c-0.1,0-0.3,0-0.4,0.1c-2.8,0.9-5.4,1.4-7.7,1.4c0,0,0,0,0,0c-7.8,0-10.3-5.1-10.4-5.3
			c-0.2-0.3-0.5-0.7-0.9-0.7c0,0,0,0,0,0c-0.4,0-0.7,0.3-0.9,0.7C89.6,84,87.1,89,79.3,89c-2.3,0-4.9-0.4-7.7-1.3
			c-0.1,0-0.1,0-0.2,0L55.2,77.2c-0.3-0.2-0.8-0.2-1.2,0c-0.3,0.2-0.6,0.6-0.6,1v11.8l-3.3-2c-0.3-0.2-0.8-0.2-1.1,0
			c-0.3,0.2-0.6,0.6-0.6,0.9v33.7c0,0.5,0.1,8.6,6.6,15.4c5.8,6.1,15,9.2,27.1,9.2c0.1,0,0.2,0,0.3,0c4.6,1.4,7.2,2.5,7.2,6.3
			c0,0.6,0.5,1,1,1c0.6,0,1-0.5,1-1c0-3.8,2.6-5,7.3-6.4c0.1,0,0.2,0.1,0.4,0.1c12.1,0,21.1-3.1,27-9.2
			C132.8,131.2,132.7,123.1,132.7,122.6z M75.3,112.7c1.4-0.5,1.9-3.3,1.9-3.3s2.1,1.4,3.7,0.7c0,0.6-0.2,1.7-0.2,1.7
			s-0.2,0.8,0.2,1.7c0.2,0.4,0.4,1.5,0.5,2.1c-0.8,0-1.5,0-2.3,0c-1.3,0-2.6,0-3.7,0.1C75.3,114.5,75.4,113.9,75.3,112.7z
			 M100.5,110.7h2.7c-0.1,1.4-0.1,2.9,0.3,5c0,0-0.1,0-0.1,0l-3.1-0.3C100.6,113.4,100.6,112.1,100.5,110.7z M122.3,115.2
			c-1.8,2-4.4,2.9-7.6,2.9c-0.8-2.3-1.2-4.5-1.3-6.5l12.3-7C125.7,105.8,125.7,111.6,122.3,115.2z M55.7,104.7l12.1,6.8
			c-0.1,2-0.5,4.2-1.3,6.6c-3.1,0-5.6-1-7.4-2.9C55.8,111.6,55.7,105.8,55.7,104.7z M130.5,90.8v21l-5.4,3.1
			c2.8-4.4,2.7-9.9,2.7-10.4v-12L130.5,90.8z M125.5,91.1l-9.2,5.3c-0.5-0.6-2-2.4-4.9-7.2l14.1-9.2L125.5,91.1L125.5,91.1z
			 M101.7,91.1c2.3,0,5-0.4,7.7-1.2c2.9,4.8,4.5,6.9,5.3,7.8c-1.4,2.3-5.3,10-2.4,19.9c-1.5-1.3-4.3-1.8-7.7-1.9
			c-0.5-2.2-0.4-3.6-0.3-5h5.1c0.6,0,0.4-1,0.4-1.7v-4.8c0-3.7-1.9-3.9-1.9-3.9s-1.2-0.2-1.8-1.9c-0.6-1.7-1.6-3.1-3.1-3.3
			c-1.5-0.2-3.8,1-5.7,2.1c-1.1,0.6-1.2,1.5-1.4,2.7c-0.4,3-1.5,2.9-1.5,2.9c-0.6,0-1,0.6-1,1.4v4.8c0,0.8,0.4,1.7,1,1.7h4.8
			c0.1,1.4-0.1,2.8-0.6,5c-3.4,0.2-5.9,0.7-7.6,2.2V87C92.9,88.8,96.2,91.1,101.7,91.1z M89,87.8v29.5c-1.4-0.9-3.6-1.4-6.2-1.5
			c-0.3-1.5-0.3-4.9,0.1-5.9c2.1-0.5,2.3-2.7,2.4-4.7c0.1-1.4-0.4-6.4-0.4-6.4c0.2-0.1,1.2-0.4,1.3-0.5c0.3,0,0.6-0.2,0.7-0.5
			c0.1-0.4,0.2-0.9,0.1-1.1c-0.2-0.2-1.2-0.3-1.4-0.7c-0.5-0.5-1-0.9-1.5-0.8c-0.6,0-1.3,0-1.7,0.7c-0.6-0.4-1.2,0.1-1.9,0
			c0,0-0.2,2.3,2.2,2l0.2,6c0,0,0.2,1.2-1.5,0.9c-1.3-0.2-4.3-1.4-5.7-1c-1.1,0.3-2.3,0.9-3,3.2c-0.7,2.3,0.4,1.6,0.4,1.6l1.2-0.8
			c0,0,0.9,2-0.1,3.2c-0.8,0.9-0.4,1.6-0.4,1.6s0.3,2.1,0.3,3.2c-2.2,0.2-4,0.7-5.2,1.6c2.8-9.9-1-17.4-2.5-19.7
			c0.8-1,2.4-3.1,5.3-7.8c2.7,0.8,5.2,1.2,7.6,1.2C84,91.1,87.1,89.4,89,87.8z M55.7,80.1l14,9.1c-2.9,4.7-4.3,6.5-4.9,7.2l-9.2-5.3
			V80.1z M53.4,92.4v12c0,0.5-0.2,6,2.6,10.4l-5.5-3.1v-21L53.4,92.4z M51.1,126l13.5,7.6c0,0,0,0,0,0c1.1,3.5,3.7,6.2,7.3,9.1
			c1,0.8,2.1,1.4,3.2,2c-8-1-14.3-3.7-18.5-8.1C53.2,132.9,51.7,128.8,51.1,126z M90.6,149.6c-1.6-2.6-5-3.6-8.5-4.6
			c-3.1-0.9-6.3-1.9-8.9-4c-6.7-5.3-9.2-9.7-5.5-20.2h45.9c3.6,10.5,1.2,14.9-5.5,20.2c-2.6,2.1-5.8,3-8.9,3.9
			C95.6,145.9,92.3,146.9,90.6,149.6z M124.8,136.5c-4.3,4.5-10.6,7.3-18.8,8.2c1.1-0.5,2.2-1.2,3.3-2c3.6-2.8,6.1-5.5,7.3-9
			c0.1,0,0.2-0.1,0.2-0.1l13.5-7.6C129.7,128.7,128.3,132.8,124.8,136.5z"/>
		<path class="st39" d="M90.5,82.4c6.2-0.1,11-3.2,11-7.3c0-4-4.8-7.2-11-7.3c-6.2,0.1-11,3.2-11,7.3C79.5,79.1,84.3,82.3,90.5,82.4
			z M90.5,70.6c3.2,0,5.4,1.3,5.4,2.9c0,1.2-1.3,2.3-3.3,2.7c-1.9,0.6-1.2,1.3-2.2,1.9c0,0,0,0,0,0c0,0,0,0,0,0
			c-1-0.6-0.3-1.3-2.1-1.9c-2-0.5-3.3-1.5-3.3-2.7C85.1,71.9,87.4,70.6,90.5,70.6z"/>
	</g>
</g>
<g>
	<g>
		<path class="st39" d="M402.2,90.6c0.1,0,0.1,0,0.1,0c0,0,0,0,0,0c0,0,1.2-0.1,1.8-0.8c0.8-0.9,1.1-2.4,0.4-3.2
			c-0.3-0.4-0.8-0.5-1.2-0.4c-0.4,0.1-0.8,0.4-0.9,0.8c0,0.1,0,0.2,0.1,0.2c0.1,0.1,0.2,0,0.3,0c0.2-0.2,0.4-0.2,0.5-0.2
			c0.1,0,0.2,0.2,0.3,0.3c0.1,0.2,0,0.4-0.1,0.5c0,0.1-0.1,0.1-0.2,0.1c-0.3,0-0.8-0.3-1.2-0.7c-0.5-0.4-1-0.8-1.6-1.1
			c-0.8-0.3-3.1-0.8-4.6,0.4c0,0,0,0,0,0c0,0-0.9,0.7-1.1,1.5c-0.3,0.7-0.4,1.3-0.1,1.9c-0.2,0.2-0.3,0.4-0.3,0.6
			c0,0.5,0.5,0.8,1.2,0.9c-0.1,0.1-0.1,0.2-0.1,0.4c0,0.5,0.6,0.9,1.4,0.9c0.6,0,1-0.2,1.2-0.5c0.2,0.3,0.7,0.5,1.2,0.5
			c0.8,0,1.4-0.4,1.4-0.9c0-0.1,0-0.2-0.1-0.4c0.4,0,0.8-0.2,1-0.4c0,0,0.1,0,0.1,0C401.7,90.7,402,90.7,402.2,90.6z M403.4,89.9
			c-0.2,0.1-0.4,0.2-0.6,0.2c0,0,0,0,0,0c0.1-1-0.4-1.9-0.7-2.3c0.3,0.3,0.6,0.5,0.9,0.6C403.2,88.7,403.4,89.2,403.4,89.9z
			 M401.7,90.3c0-0.1-0.2-0.4-0.4-0.8c-0.3-0.7-1-1.6-2.4-2c-1.9-0.6-3-0.3-3.5,0c0,0,0.1-0.1,0.1-0.1c0,0,0,0,0.1-0.1
			c0.1-0.2,0.3-0.3,0.5-0.4c0.7-0.2,1.7-0.3,3.2,0.1c2,0.6,2.6,2,2.7,2.6c0.1,0.2,0.1,0.4,0.1,0.6c0,0,0,0,0,0c0,0-0.1,0-0.1,0
			C401.8,90.3,401.7,90.3,401.7,90.3z M398.7,88.4c-0.3,0.1-0.5,0.2-0.7,0.4c-0.2-0.3-0.7-0.4-1.2-0.4c-0.2,0-0.3,0-0.5,0.1
			c0.5-0.2,1.1-0.2,1.8-0.1C398.3,88.3,398.5,88.3,398.7,88.4z M396.8,88.8c0.5,0,0.9,0.3,0.9,0.5c0,0.1-0.1,0.2-0.3,0.3
			c-0.1,0-0.1,0-0.2,0.1c-0.1,0-0.3,0.1-0.5,0.1c-0.5,0-0.9-0.3-0.9-0.5C395.9,89,396.2,88.8,396.8,88.8z M397.4,90.1
			c0,0,0.1,0,0.2,0c0.1,0,0.2,0,0.3,0c0.6,0,0.9,0.3,0.9,0.5c0,0.2-0.4,0.5-0.9,0.5c-0.6,0-0.9-0.3-0.9-0.5
			C397,90.3,397.1,90.2,397.4,90.1z M398.2,89.2c0-0.2,0.4-0.5,0.9-0.5c0.1,0,0.2,0,0.3,0c0.4,0.1,0.7,0.3,0.7,0.4v0
			c0,0.2-0.2,0.3-0.5,0.4c-0.1,0-0.3,0.1-0.5,0.1C398.6,89.7,398.2,89.5,398.2,89.2z M395.3,89.6c0-0.1,0-0.2,0-0.2
			c0-0.2,0.1-0.4,0.3-0.5c-0.1,0.1-0.2,0.3-0.2,0.4c0,0.1,0,0.2,0.1,0.4C395.5,89.6,395.4,89.6,395.3,89.6z M400.4,89.6
			C400.4,89.6,400.4,89.6,400.4,89.6C400.4,89.6,400.4,89.6,400.4,89.6C400.4,89.6,400.4,89.6,400.4,89.6z M394.6,90.5
			c0-0.1,0.1-0.2,0.3-0.3c0.1-0.1,0.3-0.1,0.4-0.1c0.1,0,0.2,0,0.3,0c0.6,0,0.9,0.3,0.9,0.5c0,0.1-0.1,0.2-0.2,0.3
			c-0.2,0.1-0.5,0.2-0.8,0.2C395,91,394.6,90.7,394.6,90.5z M396.7,92.2c-0.6,0-0.9-0.2-0.9-0.5c0-0.2,0.4-0.5,0.9-0.5c0,0,0,0,0,0
			c0,0,0,0,0,0c0,0,0,0,0,0c0.3,0,0.5,0.1,0.7,0.2c0.1,0,0.2,0.1,0.2,0.3C397.6,91.9,397.2,92.2,396.7,92.2z M399.1,92.2
			c-0.6,0-0.9-0.3-0.9-0.5c0-0.1,0-0.1,0.1-0.2c0,0,0,0,0,0c0.2-0.2,0.5-0.3,0.8-0.3c0.2,0,0.3,0,0.5,0.1c0.3,0.1,0.5,0.2,0.5,0.4
			C400.1,91.9,399.7,92.2,399.1,92.2z M401.1,90.6c-0.1,0.2-0.4,0.3-0.9,0.3c-0.2,0-0.3,0-0.4-0.1c-0.3-0.1-0.5-0.3-0.5-0.4
			c0-0.2,0.2-0.3,0.5-0.4c0.1,0,0.3-0.1,0.5-0.1c0.1,0,0.2,0,0.3,0c0.4,0.1,0.6,0.3,0.6,0.4C401.2,90.5,401.2,90.6,401.1,90.6z"/>
		<path class="st39" d="M413.3,85.7V74.4c0-0.1,0-0.2-0.2-0.3s-0.2-0.1-0.3,0l-1.2,0.7v-4c0-0.1-0.1-0.3-0.2-0.3
			c-0.1-0.1-0.3-0.1-0.4,0l-5.5,3.5c0,0-0.1,0-0.2,0c-1,0.3-1.8,0.5-2.7,0.5c0,0,0,0,0,0c-2.7,0-3.5-1.7-3.6-1.8
			c-0.1-0.1-0.2-0.2-0.3-0.2c0,0,0,0,0,0c-0.1,0-0.2,0.1-0.3,0.2c0,0.1-0.9,1.7-3.6,1.7c-0.8,0-1.7-0.1-2.7-0.4c0,0,0,0-0.1,0
			l-5.5-3.5c-0.1-0.1-0.3-0.1-0.4,0c-0.1,0.1-0.2,0.2-0.2,0.3v4l-1.1-0.7c-0.1-0.1-0.3-0.1-0.4,0c-0.1,0.1-0.2,0.2-0.2,0.3v11.2
			c0,0.2,0,2.9,2.3,5.1c2,2,5.1,3.1,9.3,3.1c0,0,0.1,0,0.1,0c1.6,0.5,2.5,0.8,2.5,2.1c0,0.2,0.2,0.3,0.3,0.3c0.2,0,0.3-0.2,0.3-0.3
			c0-1.3,0.9-1.7,2.5-2.1c0,0,0.1,0,0.1,0c4.1,0,7.2-1,9.2-3.1C413.3,88.5,413.3,85.8,413.3,85.7z M393.7,82.4
			c0.5-0.2,0.7-1.1,0.7-1.1s0.7,0.5,1.3,0.2c0,0.2-0.1,0.6-0.1,0.6s-0.1,0.3,0.1,0.6c0.1,0.1,0.1,0.5,0.2,0.7c-0.3,0-0.5,0-0.8,0
			c-0.4,0-0.9,0-1.3,0C393.7,83,393.7,82.8,393.7,82.4z M402.3,81.7h0.9c0,0.5,0,1,0.1,1.7c0,0,0,0,0,0l-1.1-0.1
			C402.3,82.6,402.3,82.2,402.3,81.7z M409.7,83.2c-0.6,0.7-1.5,1-2.6,1c-0.3-0.8-0.4-1.5-0.4-2.2l4.2-2.3
			C410.9,80,410.9,82,409.7,83.2z M387,79.7l4.1,2.3c0,0.7-0.2,1.4-0.4,2.2c-1.1,0-1.9-0.3-2.5-1C387,82,387,80,387,79.7z M412.6,75
			v7l-1.8,1c0.9-1.5,0.9-3.3,0.9-3.5v-4L412.6,75z M410.9,75.2l-3.1,1.8c-0.2-0.2-0.7-0.8-1.7-2.4l4.8-3.1V75.2L410.9,75.2z
			 M402.7,75.2c0.8,0,1.7-0.1,2.6-0.4c1,1.6,1.6,2.3,1.8,2.6c-0.5,0.8-1.8,3.3-0.8,6.6c-0.5-0.4-1.5-0.6-2.6-0.6
			c-0.2-0.7-0.1-1.2-0.1-1.7h1.7c0.2,0,0.1-0.3,0.1-0.6v-1.6c0-1.2-0.7-1.3-0.7-1.3s-0.4-0.1-0.6-0.6c-0.2-0.6-0.5-1-1.1-1.1
			c-0.5-0.1-1.3,0.3-2,0.7c-0.4,0.2-0.4,0.5-0.5,0.9c-0.1,1-0.5,1-0.5,1c-0.2,0-0.3,0.2-0.3,0.5v1.6c0,0.3,0.2,0.6,0.3,0.6h1.6
			c0,0.5,0,0.9-0.2,1.7c-1.1,0.1-2,0.2-2.6,0.7V73.8C399.7,74.4,400.8,75.2,402.7,75.2z M398.3,74.1v9.8c-0.5-0.3-1.2-0.5-2.1-0.5
			c-0.1-0.5-0.1-1.7,0-2c0.7-0.2,0.8-0.9,0.8-1.6c0-0.5-0.2-2.1-0.2-2.1c0.1,0,0.4-0.1,0.5-0.2c0.1,0,0.2-0.1,0.2-0.2
			c0-0.1,0.1-0.3,0-0.4c-0.1-0.1-0.4-0.1-0.5-0.2c-0.2-0.2-0.3-0.3-0.5-0.3c-0.2,0-0.4,0-0.6,0.2c-0.2-0.1-0.4,0-0.6,0
			c0,0-0.1,0.8,0.8,0.7l0.1,2c0,0,0.1,0.4-0.5,0.3c-0.4-0.1-1.5-0.5-2-0.3c-0.4,0.1-0.8,0.3-1,1.1c-0.2,0.8,0.2,0.5,0.2,0.5l0.4-0.3
			c0,0,0.3,0.7,0,1.1c-0.3,0.3-0.2,0.5-0.2,0.5s0.1,0.7,0.1,1.1c-0.8,0.1-1.4,0.2-1.8,0.5c1-3.3-0.4-5.8-0.8-6.6
			c0.3-0.3,0.8-1,1.8-2.6c0.9,0.3,1.8,0.4,2.6,0.4C396.7,75.2,397.7,74.6,398.3,74.1z M387,71.5l4.8,3c-1,1.6-1.5,2.2-1.7,2.4
			l-3.1-1.8V71.5z M386.2,75.6v4c0,0.2-0.1,2,0.9,3.5l-1.9-1v-7L386.2,75.6z M385.4,86.8l4.6,2.5c0,0,0,0,0,0c0.4,1.2,1.3,2.1,2.5,3
			c0.3,0.3,0.7,0.5,1.1,0.7c-2.8-0.3-4.9-1.2-6.3-2.7C386.1,89.1,385.6,87.7,385.4,86.8z M398.9,94.7c-0.6-0.9-1.7-1.2-2.9-1.5
			c-1.1-0.3-2.2-0.6-3-1.3c-2.3-1.8-3.1-3.2-1.9-6.7h15.7c1.2,3.5,0.4,5-1.9,6.7c-0.9,0.7-2,1-3,1.3
			C400.6,93.4,399.5,93.8,398.9,94.7z M410.6,90.3c-1.5,1.5-3.6,2.4-6.4,2.7c0.4-0.2,0.8-0.4,1.1-0.7c1.2-0.9,2.1-1.8,2.5-3
			c0,0,0.1,0,0.1,0l4.6-2.5C412.3,87.7,411.8,89.1,410.6,90.3z"/>
		<path class="st39" d="M398.9,72.2c2.1,0,3.8-1.1,3.8-2.4c0-1.3-1.7-2.4-3.8-2.4c-2.1,0-3.8,1.1-3.8,2.4
			C395.1,71.2,396.8,72.2,398.9,72.2z M398.9,68.3c1.1,0,1.9,0.4,1.9,1c0,0.4-0.4,0.8-1.1,0.9c-0.6,0.2-0.4,0.4-0.7,0.6c0,0,0,0,0,0
			c0,0,0,0,0,0c-0.3-0.2-0.1-0.4-0.7-0.6c-0.7-0.2-1.1-0.5-1.1-0.9C397,68.7,397.8,68.3,398.9,68.3z"/>
	</g>
</g>
</svg>
